<svg version="1.1" xmlns="http://www.w3.org/2000/svg" xmlns:xlink="http://www.w3.org/1999/xlink" width="316.03832" height="90.3158" viewBox="0,0,316.03832,90.3158"><g transform="translate(12.46845,-180.56935)"><g data-paper-data="{&quot;isPaintingLayer&quot;:true}" fill-rule="nonzero" stroke-linejoin="miter" stroke-miterlimit="10" stroke-dasharray="" stroke-dashoffset="0" style="mix-blend-mode: normal"><path d="M-9.46845,267.88516v-84.3158h160.26316v84.3158z" fill="#ffffff" stroke="#000000" stroke-width="6" stroke-linecap="butt"/><path d="M300.56987,225.50714h-148.42105" fill="none" stroke="#000000" stroke-width="6" stroke-linecap="round"/><path d="M37.78483,249.68419c-2.5,0 -2.5,-2.5 -2.5,-2.5v-0.87258c0,-8.45076 -0.43243,-16.872 -0.43628,-25.3047c0,0 0,-2.5 2.5,-2.5c2.5,0 2.5,2.5 2.5,2.5c-0.00403,8.43076 0.43628,16.85513 0.43628,25.3047v0.87258c0,0 0,2.5 -2.5,2.5z" fill="#000000" stroke="none" stroke-width="0.5" stroke-linecap="butt"/><path d="M36.03968,202.56508c-1.38071,0 -2.5,-1.11929 -2.5,-2.5c0,-0.48518 0.13821,-0.93808 0.37741,-1.32147l1.28772,-2.1462c0,0 0.94716,-1.57861 2.57056,-1.21375c0.00315,-0.00001 0.0063,-0.00002 0.00946,-0.00002c1.38071,0 2.5,1.11929 2.5,2.5v2.61773l-1.71069,0.39759l-0.56786,0.70982c-0.45772,0.5823 -1.16848,0.9563 -1.9666,0.9563z" fill="#000000" stroke="none" stroke-width="0.5" stroke-linecap="butt"/><path d="M70.27859,242.17978c-1.02929,-1.89177 -0.19309,-4.54261 -1.4403,-6.29837c-0.62973,-0.8865 -1.74021,-1.30968 -2.54417,-2.04187c-0.39083,-0.35594 -0.51446,-1.07536 -1.0258,-1.20942c-0.40775,-0.10691 -0.72767,0.4264 -1.0804,0.6572c-2.09623,1.3716 -2.50019,1.64628 -4.43506,3.30705c-0.254,0.21802 -0.78641,0.38142 -0.7123,0.70785c0.21941,0.96638 2.54065,5.29292 3.56897,5.98057c1.10424,0.73843 2.64193,-0.34374 3.97033,-0.34374c1.73067,0 2.79562,0.08758 3.94148,-0.02056l-0.20515,-0.61546l0.02606,-0.00869c-0.02153,-0.03797 -0.04275,-0.07615 -0.06364,-0.11455zM77.54167,243.01214c1.11803,2.23607 -1.11803,3.3541 -1.11803,3.3541l-1.20004,0.57193c-3.28027,1.08398 -5.34071,1.00087 -8.64375,1.00087c-2.98418,0 -3.14688,1.58549 -6.50059,-0.34374c-2.4322,-1.39914 -5.99793,-8.2059 -6.02937,-10.59838c-0.04306,-3.27676 5.36667,-7.09677 7.94128,-8.20117c2.33985,-1.0037 4.52609,-0.8348 6.46433,0.12247c-0.26883,-1.46246 -0.44486,-2.94162 -0.44888,-4.45007c-0.02264,-8.49524 0.43612,-17.158 0.43612,-25.71193c0,0 0,-2.5 2.5,-2.5c2.5,0 2.5,2.5 2.5,2.5c0,8.58079 -0.40877,17.24901 -0.43646,25.77006c-0.01717,5.28403 2.30755,10.35784 3.0479,15.50008l-0.05645,0.17722h0.06274v1.49023c0.53437,0.14511 1.07984,0.51557 1.48122,1.31832z" fill="#000000" stroke="none" stroke-width="0.5" stroke-linecap="butt"/><path d="M116.99333,245.62314c-0.62039,2.4218 -3.04219,1.80141 -3.04219,1.80141l-2.07932,-0.54504c-4.7517,-1.7551 -10.00759,-4.65892 -14.27343,-7.91533c-0.14418,2.24881 -0.38036,4.46148 -1.16068,6.82914l-0.57193,1.20004c0,0 -1.11803,2.23607 -3.3541,1.11803c-2.23607,-1.11803 -1.11803,-3.3541 -1.11803,-3.3541l0.30065,-0.54511c1.04192,-3.08472 0.96832,-5.88044 1.133,-8.91567c-0.25626,-0.33344 -0.40808,-0.70649 -0.38801,-1.14148c0.02517,-0.54563 0.256,-1.00858 0.60285,-1.4222c1.24784,-11.24566 2.89016,-22.161 2.88675,-33.54032c0,0 0,-2.5 2.5,-2.5c2.5,0 2.5,2.5 2.5,2.5c-0.00286,9.88445 -1.19037,19.43563 -2.34098,29.13998c2.98246,-2.1905 6.48477,-4.18428 9.46194,-5.979c0,0 2.14373,-1.28624 3.42997,0.85749c1.28624,2.14373 -0.85749,3.42997 -0.85749,3.42997c-3.10434,1.85261 -6.04393,4.03219 -9.06154,6.04443c-0.51179,0.34128 -1.22504,0.87443 -1.92217,1.27331c1.45307,0.91446 3.64245,2.40304 3.66732,2.41962c3.58936,2.39312 6.14236,4.32691 10.27461,5.80224l1.61139,0.40041c0,0 2.4218,0.62039 1.80141,3.04219z" fill="#000000" stroke="none" stroke-width="0.5" stroke-linecap="butt"/></g></g></svg>