<svg version="1.1" xmlns="http://www.w3.org/2000/svg" xmlns:xlink="http://www.w3.org/1999/xlink" width="430.25218" height="92.66415" viewBox="0,0,430.25218,92.66415"><g transform="translate(-2.86569,-3.60191)"><g data-paper-data="{&quot;isPaintingLayer&quot;:true}" fill="#ff0000" fill-rule="nonzero" stroke="none" stroke-linecap="butt" stroke-linejoin="miter" stroke-miterlimit="10" stroke-dasharray="" stroke-dashoffset="0" style="mix-blend-mode: normal"><path d="M34.32556,17.09073c-4.5013,0.3659 -8.66934,1.96128 -12.85533,3.98424c-2.29231,1.1078 -3.58238,3.68598 -5.73711,5.0421c-1.57769,0.99295 -5.01282,0.90496 -5.64037,3.45571c-0.68675,2.79135 0.1807,7.40743 0.1807,10.33056c0,4.5125 0.4282,8.4229 0.86318,12.85773c0.27141,2.76721 -0.67134,5.62486 -0.07706,8.3411c0.51379,2.34834 2.23298,4.25812 3.30643,6.40903c3.37159,8.47272 7.54112,12.24027 15.37856,16.48925c0.49726,0.26958 5.08884,3.36219 6.10419,3.56392c6.42167,1.27589 13.85372,0.88568 20.39323,1.33789c5.98671,0.41398 11.94399,1.39895 17.00768,-2.47681c8.94087,-6.84336 10.20038,-17.63037 12.75717,-27.58543c0.07659,-5.39886 1.96622,-7.9976 3.66568,-12.97754c1.38821,-4.06788 1.62096,-10.85945 0.77305,-14.97668c-0.29003,-1.40829 -1.23736,-2.60773 -1.65336,-3.98408c-0.23311,-0.77126 0.3123,-1.85139 -0.27659,-2.40129c-2.17784,-2.03365 -5.68231,-2.02811 -8.11533,-3.74832c-3.28423,-2.32204 -5.75534,-5.11647 -9.72654,-6.59657c-3.39783,-1.2664 -6.81122,-0.81323 -10.1511,-1.6361c-1.27419,-0.31393 -2.26146,-1.39315 -3.52126,-1.76063c-3.19894,-0.93313 -6.98604,1.96652 -9.28753,3.34741c-2.34898,0.59874 -4.65357,1.44034 -6.81528,2.53723l-3.10218,1.07136c0,0 -2.04744,0.68248 -3.47082,-0.62407zM37.99591,10.22333c2.24761,-1.09498 4.59592,-2.02957 7.02286,-2.62354c4.22604,-2.53563 8.40225,-4.84279 13.60062,-3.6951c1.28144,0.28291 2.24936,1.43752 3.52126,1.76063c3.51407,0.89269 7.35258,0.51968 10.97643,1.88515c4.54089,1.71102 7.64862,4.77517 11.40099,7.48845c2.90458,2.10026 7.00235,2.47517 9.49095,5.05481c1.12769,1.16895 0.94159,3.11024 1.48404,4.64122c0.57537,1.62388 1.53757,3.12822 1.8679,4.81905c1.03184,5.28175 0.69878,13.32136 -0.98758,18.47524c-1.58798,4.85321 -3.4625,6.5894 -3.37683,11.67125c-2.86066,11.72105 -4.80527,24.43166 -15.41287,32.2759c-6.783,5.01598 -13.81478,4.50276 -21.82626,3.95168c-6.92598,-0.47641 -14.99703,-0.05708 -21.7617,-1.56935c-2.53321,-0.56631 -5.45976,-2.98925 -7.7072,-4.22209c-2.17235,-1.19165 -4.55859,-2.00132 -6.62991,-3.36101c-5.75976,-3.78091 -9.24244,-10.22289 -11.71708,-16.37942c-0.43586,-0.86997 -3.62337,-7.17399 -3.73608,-7.67599c-0.44035,-1.9613 0.14877,-7.05285 -0.07706,-9.26518c-0.47249,-4.62878 -0.89745,-8.84433 -0.89745,-13.55168c0,-3.32682 -0.93153,-9.59248 0.1807,-12.5576c0.75698,-2.01804 2.19061,-3.81465 3.83956,-5.20262c1.27094,-1.06978 3.19346,-1.02963 4.60508,-1.90544c2.43463,-1.5105 4.03725,-4.21539 6.58728,-5.52167c5.74795,-2.94446 11.82609,-4.65669 18.2393,-4.74335c0,0 0.60478,0 1.31307,0.25064z" stroke-width="0.5"/><path d="M66.75751,74.38253c0,-1.38071 1.11929,-2.5 2.5,-2.5c1.38071,0 2.5,1.11929 2.5,2.5c0,1.38071 -1.11929,2.5 -2.5,2.5c-1.38071,0 -2.5,-1.11929 -2.5,-2.5z" stroke-width="0.5"/><text transform="translate(141.43284,56.26054) scale(0.83675,0.83675)" font-size="40" xml:space="preserve" fill="#ff0000" fill-rule="nonzero" stroke="none" stroke-width="1" stroke-linecap="butt" stroke-linejoin="miter" stroke-miterlimit="10" stroke-dasharray="" stroke-dashoffset="0" font-family="Sans Serif" font-weight="normal" text-anchor="start" style="mix-blend-mode: normal"><tspan x="0" dy="0">What's the point...</tspan></text><path d="M39.824,74.83218c0,-1.85396 1.20985,-2.33305 1.83514,-2.45686c2.91387,-3.40212 5.464,-7.03092 8.18539,-10.63057c1.23178,-1.6293 2.89766,-2.81481 4.02588,-4.53824c0.52733,-0.80553 0.66401,-1.88341 1.18532,-2.69398c1.20746,-1.87745 2.89044,-3.10292 4.49189,-4.46783c1.55438,-1.72656 2.81353,-3.94322 3.50916,-6.33116c0.33698,-1.15679 0.2295,-2.46316 0.66519,-3.57656c0.42821,-1.09432 1.21123,-1.96217 1.86849,-2.89837c0.31622,-0.45043 1.15946,-0.6924 1.04682,-1.25421c-0.09613,-0.47945 -0.88566,0.14922 -1.29815,0.00063c-0.68183,-0.24562 -1.18674,-1.01601 -1.89224,-1.14994c-1.28624,-0.24416 -2.61334,0.18327 -3.91197,0.04815c-1.62228,-0.1688 -3.12484,-1.11694 -4.74127,-1.34699c-1.74699,-0.24864 -3.53,0.20552 -5.28192,0.00656c-5.31142,-0.60319 -10.40683,-2.70564 -15.78503,-2.68182c0,0 -2.19994,0 -2.19994,-2.5c0,-2.5 2.19994,-2.5 2.19994,-2.5c5.54182,0.0212 10.75305,2.08457 16.21858,2.70615c1.13838,0.12946 4.22201,-0.15852 5.38595,0.00656c1.61652,0.22927 3.1188,1.18059 4.74127,1.34699c1.45591,0.14932 2.95011,-0.26772 4.38526,0.04815c0.99279,0.2185 6.10701,3.52441 6.29216,4.23865c1.21228,4.67643 -1.84369,4.98312 -3.01129,7.97033c-0.3826,0.97886 -0.2203,2.14296 -0.52013,3.15839c-0.97916,3.31608 -2.67109,6.04333 -4.78807,8.48574c-0.78556,0.66953 -3.09961,2.4592 -3.80534,3.61411c-0.50392,0.82466 -0.65279,1.89288 -1.18532,2.69398c-1.37131,2.06291 -2.85748,3.01159 -4.27135,4.8907c-2.96571,3.9416 -5.75476,7.89557 -8.99625,11.57919l-2.14825,0.73223c0,0 -2.19994,0 -2.19994,-2.5z" stroke-width="0.5"/></g></g></svg>