<svg version="1.1" xmlns="http://www.w3.org/2000/svg" xmlns:xlink="http://www.w3.org/1999/xlink" width="411.96652" height="137.53595" viewBox="0,0,411.96652,137.53595"><g transform="translate(-2.86569,-3.6019)"><g data-paper-data="{&quot;isPaintingLayer&quot;:true}" fill="#ff0000" fill-rule="nonzero" stroke="none" stroke-linecap="butt" stroke-linejoin="miter" stroke-miterlimit="10" stroke-dasharray="" stroke-dashoffset="0" style="mix-blend-mode: normal"><path d="M34.32555,17.09073c-4.5013,0.3659 -8.66934,1.96128 -12.85533,3.98424c-2.29231,1.1078 -3.58238,3.68598 -5.73711,5.0421c-1.57769,0.99295 -5.01282,0.90496 -5.64037,3.45571c-0.68675,2.79135 0.1807,7.40743 0.1807,10.33056c0,4.5125 0.4282,8.4229 0.86318,12.85773c0.27141,2.76721 -0.67134,5.62486 -0.07706,8.3411c0.51379,2.34834 2.23298,4.25812 3.30643,6.40903c3.37159,8.47272 7.54112,12.24027 15.37856,16.48925c0.49726,0.26958 5.08884,3.36219 6.10419,3.56392c6.42167,1.27589 13.85372,0.88568 20.39323,1.33789c5.98671,0.41398 11.94399,1.39895 17.00768,-2.47681c8.94087,-6.84336 10.20038,-17.63037 12.75717,-27.58543c0.07659,-5.39886 1.96622,-7.9976 3.66568,-12.97754c1.38821,-4.06788 1.62096,-10.85945 0.77305,-14.97668c-0.29003,-1.40829 -1.23736,-2.60773 -1.65336,-3.98408c-0.23311,-0.77126 0.3123,-1.85139 -0.27659,-2.40129c-2.17784,-2.03365 -5.68231,-2.02811 -8.11533,-3.74832c-3.28423,-2.32204 -5.75534,-5.11647 -9.72654,-6.59657c-3.39783,-1.2664 -6.81122,-0.81323 -10.1511,-1.6361c-1.27419,-0.31393 -2.26146,-1.39315 -3.52126,-1.76063c-3.19894,-0.93313 -6.98604,1.96652 -9.28753,3.34741c-2.34898,0.59874 -4.65357,1.44034 -6.81528,2.53723l-3.10218,1.07136c0,0 -2.04744,0.68248 -3.47082,-0.62407zM37.99591,10.22332c2.24761,-1.09498 4.59592,-2.02957 7.02286,-2.62354c4.22604,-2.53563 8.40225,-4.84279 13.60062,-3.6951c1.28144,0.28291 2.24936,1.43752 3.52126,1.76063c3.51407,0.89269 7.35258,0.51968 10.97643,1.88515c4.54089,1.71102 7.64862,4.77517 11.40099,7.48845c2.90458,2.10026 7.00235,2.47517 9.49095,5.05481c1.12769,1.16895 0.94159,3.11024 1.48404,4.64122c0.57537,1.62388 1.53757,3.12822 1.8679,4.81905c1.03184,5.28175 0.69878,13.32136 -0.98758,18.47524c-1.58798,4.85321 -3.4625,6.5894 -3.37683,11.67125c-2.86066,11.72105 -4.80527,24.43166 -15.41287,32.2759c-6.783,5.01598 -13.81478,4.50276 -21.82626,3.95168c-6.92598,-0.47641 -14.99703,-0.05708 -21.7617,-1.56935c-2.53321,-0.56631 -5.45976,-2.98925 -7.7072,-4.22209c-2.17235,-1.19165 -4.55859,-2.00132 -6.62991,-3.36101c-5.75976,-3.78091 -9.24244,-10.22289 -11.71708,-16.37942c-0.43586,-0.86997 -3.62337,-7.17399 -3.73608,-7.67599c-0.44035,-1.9613 0.14877,-7.05285 -0.07706,-9.26518c-0.47249,-4.62878 -0.89745,-8.84433 -0.89745,-13.55168c0,-3.32682 -0.93153,-9.59248 0.1807,-12.5576c0.75698,-2.01804 2.19061,-3.81465 3.83956,-5.20262c1.27094,-1.06978 3.19346,-1.02963 4.60508,-1.90544c2.43463,-1.5105 4.03725,-4.21539 6.58728,-5.52167c5.74795,-2.94446 11.82609,-4.65669 18.2393,-4.74335c0,0 0.60478,0 1.31307,0.25064z" stroke-width="0.5"/><path d="M73.12499,68.75c0,-1.38071 1.11929,-2.5 2.5,-2.5c1.38071,0 2.5,1.11929 2.5,2.5c0,1.38071 -1.11929,2.5 -2.5,2.5c-1.38071,0 -2.5,-1.11929 -2.5,-2.5z" stroke-width="0.5"/><text transform="translate(134.375,44.39894) scale(0.70697,0.61814)" font-size="40" xml:space="preserve" fill="#ff0000" fill-rule="nonzero" stroke="none" stroke-width="1" stroke-linecap="butt" stroke-linejoin="miter" stroke-miterlimit="10" stroke-dasharray="" stroke-dashoffset="0" font-family="Sans Serif" font-weight="normal" text-anchor="start" style="mix-blend-mode: normal"><tspan x="0" dy="0">Scratch is a program</tspan><tspan x="0" dy="48px">where you can make</tspan><tspan x="0" dy="48px">completely fair and</tspan><tspan x="0" dy="48px">fun games.</tspan></text><path d="M67.82931,65.84037c1.23144,2.46288 -1.23144,3.69432 -1.23144,3.69432l-1.94039,0.89689c-6.58679,1.64482 -12.28068,1.50468 -18.9026,0.74998c-3.7943,-0.43244 -8.35852,0.97816 -12.0547,0.02063h-2.75359c-1.52076,0 -2.75359,-1.23282 -2.75359,-2.75359c0,-1.09924 0.64411,-2.04804 1.5755,-2.48956l2.53327,-1.26664c7.04713,-5.30659 14.15549,-11.9139 15.9082,-20.87771c0.25891,-1.32412 1.63221,-5.11761 0.06464,-6.46205c-1.33806,-1.1476 -3.26404,-1.35793 -4.79153,-2.23778c-0.54011,-0.31111 -0.90659,-1.18404 -1.52215,-1.08609c-1.1356,0.1807 -1.93177,1.25267 -2.94473,1.79686c-2.45746,1.32021 -5.07898,2.30914 -7.61857,3.4635c0,0 -2.50677,1.13944 -3.64621,-1.36733c-1.13944,-2.50677 1.36733,-3.64621 1.36733,-3.64621c2.50883,-1.14038 10.15347,-5.56145 12.84218,-5.75399c1.43627,-0.10285 2.67278,1.07467 3.98503,1.6675c0.73758,0.33321 5.95305,2.98117 6.22281,3.26939c3.20051,3.41952 2.25768,7.42757 1.44143,11.43626c-1.74608,8.57515 -7.29573,15.24563 -13.78908,20.79789c0.94274,-0.00054 1.88547,-0.00031 2.82821,0.00239c7.22999,0.02066 13.43889,1.20437 20.67245,-0.60618l0.81319,-0.47991c0,0 2.46288,-1.23144 3.69432,1.23144z" stroke-width="0.5"/></g></g></svg>