<svg version="1.1" xmlns="http://www.w3.org/2000/svg" xmlns:xlink="http://www.w3.org/1999/xlink" width="315.47368" height="90.3158" viewBox="0,0,315.47368,90.3158"><g transform="translate(132.47367,-179.52631)"><g data-paper-data="{&quot;isPaintingLayer&quot;:true}" fill-rule="nonzero" stroke-linejoin="miter" stroke-miterlimit="10" stroke-dasharray="" stroke-dashoffset="0" style="mix-blend-mode: normal"><path d="M19.73685,266.84211v-84.3158h160.26316v84.3158z" fill="#ffffff" stroke="#000000" stroke-width="6" stroke-linecap="butt"/><path d="M18.94738,223.42105h-148.42105" fill="none" stroke="#000000" stroke-width="6" stroke-linecap="round"/><path d="M29.25885,216.55955c-1.41591,0 -1.41591,-1.41591 -1.41591,-1.41591v-1.40318c0.00265,-2.1781 -0.3008,-4.26771 -0.58894,-6.42787c0,0 -0.18713,-1.40349 1.21636,-1.59062c1.40349,-0.18713 1.59062,1.21636 1.59062,1.21636c0.3045,2.28475 0.61122,4.49776 0.61378,6.80213v1.40318c0,0 0,1.41591 -1.41591,1.41591z" fill="#000000" stroke="none" stroke-width="0.5" stroke-linecap="butt"/><path d="M27.24158,195.4991c0,-0.78198 0.63392,-1.41591 1.41591,-1.41591c0.78198,0 1.41591,0.63392 1.41591,1.41591c0,0.78198 -0.63392,1.41591 -1.41591,1.41591c-0.78198,0 -1.41591,-0.63392 -1.41591,-1.41591z" fill="#000000" stroke="none" stroke-width="0.5" stroke-linecap="butt"/><path d="M54.92976,205.32137c0,1.41591 -1.41591,1.41591 -1.41591,1.41591h-1.40318c-2.64092,-0.00552 -5.64051,-1.09802 -8.24159,-0.45229c-0.22218,0.05516 -0.43996,0.12997 -0.65514,0.21577c0.10081,0.38323 0.19133,0.77153 0.26584,1.16653c0.56766,3.00942 0.62258,6.22954 0.62544,9.28044l-1.1836,1.46688c0,0 -1.26643,0.63321 -1.89964,-0.63321c-0.38936,-0.77871 -0.06048,-1.31801 0.25057,-1.6179c-0.00944,-2.64153 -0.09552,-5.39355 -0.57643,-7.97623c-0.04223,-0.2268 -0.08798,-0.45064 -0.13655,-0.67186c-0.09878,0.01287 -0.19849,0.02095 -0.29929,0.02349c-0.46063,0.01162 -0.86194,-0.41072 -1.32264,-0.40186c-0.50671,0.00974 -1.75057,0.94486 -2.07791,1.16653c0,0 -1.17811,0.7854 -1.96351,-0.3927c-0.7854,-1.17811 0.3927,-1.96351 0.3927,-1.96351c1.162,-0.765 2.02795,-1.49392 3.53481,-1.63984c0.32619,-0.03159 0.63277,0.13389 0.94538,0.26172c-0.78218,-2.6639 -1.50358,-5.15893 -0.64622,-8.25639c0,0 0.38898,-1.36143 1.75041,-0.97245c1.36143,0.38898 0.97245,1.75041 0.97245,1.75041c-0.72599,2.44054 -0.13663,4.58625 0.5632,6.77755c0.28427,-0.15067 0.53181,-0.27273 0.70424,-0.31242c3.029,-0.69724 5.97647,0.35669 8.9975,0.34953h1.40318c0,0 1.41591,0 1.41591,1.41591z" fill="#000000" stroke="none" stroke-width="0.5" stroke-linecap="butt"/><path d="M56.32128,204.31802c-1.0012,-1.0012 0,-2.0024 0,-2.0024l0.81716,-0.77827c1.6767,-0.98631 2.14984,-3.36677 3.59284,-4.83445c0,0 1.0012,-1.0012 2.0024,0c1.0012,1.0012 0,2.0024 0,2.0024c-1.25698,1.22912 -1.45601,2.83332 -2.51856,4.11381c-0.39377,0.47453 -1.00391,0.7163 -1.50586,1.07446l-0.38557,0.42445c0,0 -1.0012,1.0012 -2.0024,0z" fill="#000000" stroke="none" stroke-width="0.5" stroke-linecap="butt"/><path d="M57.70614,221.30446c-0.41759,-0.11739 -0.99775,-0.44357 -0.99775,-1.34991c0,-1.41591 1.41591,-1.41591 1.41591,-1.41591l1.57902,0.6305c0.91004,1.89939 2.65056,-0.1883 3.50984,-1.27677c0.36561,-0.46313 1.14909,-1.05549 0.84003,-1.55812c-0.14044,-0.22841 -0.53828,-0.10931 -0.76238,-0.25653c-0.77585,-0.50967 -2.49461,-2.0917 -2.72003,-2.95311c-0.81196,-3.10283 2.40377,-4.45127 4.38539,-5.77407c0,0 1.17811,-0.7854 1.96351,0.3927c0.7854,1.17811 -0.3927,1.96351 -0.3927,1.96351c-0.40811,0.27174 -3.66247,1.77443 -3.23188,2.64502c0.59428,1.20157 2.87568,1.58678 3.33304,2.80399c1.38818,3.69443 -4.49732,9.27594 -8.05603,7.19939c-0.39484,-0.23039 -0.62921,-0.64188 -0.86596,-1.05068z" fill="#000000" stroke="none" stroke-width="0.5" stroke-linecap="butt"/><path d="M85.98748,222.77364c-1.41591,0 -1.41591,-1.41591 -1.41591,-1.41591l0.05448,-0.81375c-0.34496,-1.20736 -0.66409,-2.41895 -1.07371,-3.60479c-0.43551,0.67725 -1.01412,1.2574 -1.58716,1.82354c-2.43513,2.40581 -6.29276,2.32802 -7.54925,-1.3829c-0.79674,-2.3531 0.62092,-4.50562 2.15126,-6.04376c1.03556,-1.04084 2.48623,-2.96592 4.31718,-2.81598c0.8479,0.06943 1.4969,0.80888 2.24536,1.21331c0,0 0.3188,0.19925 0.52519,0.55668c0.30759,0.16688 0.54642,0.4444 0.66311,0.77916l0.58448,1.55861c1.29167,1.91786 1.81022,4.9115 2.44641,7.13817l0.05448,1.59171c0,0 0,1.41591 -1.41591,1.41591zM81.62887,212.13478c-0.32064,-0.26374 -0.56354,-0.67434 -0.96192,-0.79123c-0.19763,-0.05799 -0.35143,0.22015 -0.50067,0.3621c-0.55159,0.52465 -1.05659,1.09635 -1.59669,1.63282c-0.78331,0.77805 -1.87426,1.87425 -1.45693,3.17715c0.55973,1.74746 1.96415,1.14813 2.87439,0.22074c0.4124,-0.42017 0.8639,-0.81834 1.17694,-1.31696c0.19776,-0.315 0.62423,-1.8377 0.7767,-2.36985l-0.25177,-0.88118c-0.03874,-0.02026 -0.06006,-0.03358 -0.06006,-0.03358z" fill="#000000" stroke="none" stroke-width="0.5" stroke-linecap="butt"/><path d="M93.20384,218.76455c-1.41591,0 -1.41591,-1.41591 -1.41591,-1.41591l0.01093,-1.5788c0.64666,-5.09906 0.59258,-10.52336 0.59043,-15.66029c0,0 0,-1.41591 1.41591,-1.41591c1.41591,0 1.41591,1.41591 1.41591,1.41591c-0.0021,5.26442 0.0325,10.78497 -0.6123,16.01153l0.01093,1.22756c0,0 0,1.41591 -1.41591,1.41591z" fill="#000000" stroke="none" stroke-width="0.5" stroke-linecap="butt"/><path d="M117.25731,211.73699c1.0012,1.0012 0,2.0024 0,2.0024l-0.11392,0.1057c-0.29426,0.34538 -0.58851,0.69076 -0.88277,1.03614c-0.63351,1.52186 -1.36669,3.71515 -2.4823,4.92371c-0.72512,0.78554 -1.46755,1.88597 -2.53357,1.96644c-1.86779,0.14099 -2.74045,-2.97554 -3.25814,-3.96492c-0.33195,-0.63441 -0.70524,-1.24788 -1.1035,-1.8429c-0.09114,-0.13616 -0.23786,-0.31403 -0.3858,-0.49995c-0.13128,0.48077 -0.36369,0.94297 -0.49374,1.42588c-0.4031,1.49684 -0.37642,4.40251 -3.30277,3.84175c-0.94218,-0.18055 -1.31753,-1.41859 -1.79033,-2.25331c-0.27796,-0.49074 -0.21696,-1.11223 -0.41505,-1.64029c-0.63453,-1.69153 -1.20511,-3.18196 -1.64931,-4.95874c0,0 -0.34341,-1.37363 1.03023,-1.71704c1.37363,-0.34341 1.71704,1.03023 1.71704,1.03023c0.42499,1.69996 0.951,3.04398 1.55796,4.66307c0.03469,0.09253 0.07485,0.19248 0.11673,0.29709c0.18437,-0.76893 1.16131,-4.11291 1.82999,-4.32448c2.48832,-0.78732 4.5985,3.14186 5.39573,4.6622c0.33501,0.63887 0.66632,1.2881 0.88673,1.97478c0.55709,-1.73324 1.74,-3.40869 2.46563,-5.06319c0.37393,-0.45644 0.74785,-0.91288 1.12178,-1.36932l0.28699,-0.29521c0,0 1.0012,-1.0012 2.0024,0z" fill="#000000" stroke="none" stroke-width="0.5" stroke-linecap="butt"/><path d="M133.3266,225.23007c-1.26643,0.63321 -1.89964,-0.63321 -1.89964,-0.63321l-0.14816,-0.30564c-1.16111,-1.93554 -2.24966,-3.90022 -3.46077,-5.80539c-0.13464,-0.2118 -0.28817,-0.41524 -0.44617,-0.61666c-0.35862,1.5873 -1.02286,2.99536 -2.86591,3.63421c-2.96278,1.02697 -5.68751,-1.43848 -5.21219,-4.50321c0.12059,-0.77753 0.86118,-1.32958 1.4114,-1.89203c1.13381,-1.15902 2.87279,-2.19381 4.26983,-2.99793c0,0 0.3591,-0.2052 0.80004,-0.19971c0.20743,-0.11916 0.44789,-0.1873 0.70427,-0.1873c0.58435,0 1.08602,0.35398 1.30227,0.85921l0.98899,2.17579l-0.15228,0.06922c1.85177,2.55424 3.42023,5.22646 5.08878,8.00684l0.25275,0.49617c0,0 0.63321,1.26643 -0.63321,1.89964zM124.92541,215.48777c-0.77876,0.53761 -1.52532,1.11595 -2.2938,1.69593c-0.51468,0.38844 -0.96299,0.59211 -0.41594,1.34159c0.37298,0.511 1.82093,0.43708 2.09097,-0.16942c0.3983,-0.89456 0.48502,-1.88885 0.61877,-2.8681z" fill="#000000" stroke="none" stroke-width="0.5" stroke-linecap="butt"/><path d="M138.3123,234.09111c-0.03273,0.32762 -0.22928,1.31116 -1.40937,1.31116c-1.41591,0 -1.41591,-1.41591 -1.41591,-1.41591l0.11448,-0.75821c1.49624,-3.47743 3.05006,-7.00139 4.86735,-10.33983c0.42468,-0.78016 0.99,-1.44625 1.5485,-2.11768c-1.96752,-2.72564 -4.50957,-5.01921 -6.47484,-7.82185c0,0 -0.81197,-1.15996 0.34799,-1.97193c1.15996,-0.81197 1.97193,0.34799 1.97193,0.34799c1.75867,2.51706 3.94085,4.60513 5.81566,6.96475c0.51347,-1.04045 1.37544,-2.81156 1.53625,-3.02278c0.7086,-0.93069 1.6857,-1.63693 2.38268,-2.57636c0,0 0.84955,-1.13273 1.98227,-0.28318c1.13273,0.84955 0.28318,1.98227 0.28318,1.98227c-0.72092,0.95245 -1.69387,1.69333 -2.42823,2.63546c-0.78998,1.01349 -1.04743,2.35305 -1.70102,3.45942c-0.12697,0.21494 -0.26529,0.4216 -0.41109,0.62276c-0.05839,0.20968 -0.18174,0.43003 -0.40209,0.65038c-0.10413,0.10413 -0.20826,0.1866 -0.31127,0.25079c-0.59614,0.71232 -1.21331,1.40726 -1.64995,2.22878c-1.70259,3.20333 -3.22327,6.52961 -4.64652,9.85398z" fill="#000000" stroke="none" stroke-width="0.5" stroke-linecap="butt"/><path d="M154.0115,227.33951c0.63321,-1.26643 1.89964,-0.63321 1.89964,-0.63321l0.74514,0.46282c2.13852,0.28054 3.31727,0.20634 4.75765,-1.51478c0.68072,-0.8134 0.90647,-1.92309 1.43521,-2.84215c-0.50959,0.03874 -1.02571,0.01944 -1.53012,-0.04916c-2.12818,-0.28944 -2.91237,-0.76189 -4.08847,-2.75362c-0.35265,-0.59721 -0.43652,-1.3236 -0.53984,-2.00941c-0.12549,-0.83302 -0.41716,-1.72667 -0.14296,-2.52322c0.7659,-2.22495 3.56833,-2.92219 5.46841,-3.32519c0,0 1.38841,-0.27768 1.6661,1.11073c0.27768,1.38841 -1.11073,1.6661 -1.11073,1.6661c-0.62956,0.11598 -3.04288,0.47284 -3.35159,1.48572c-0.26133,0.85742 0.71365,2.8825 1.40669,3.33446c1.78212,1.16219 4.61107,-1.18462 5.83079,1.80704c0.30704,0.75308 -0.6035,1.51042 -0.90592,2.26536c-0.91695,2.28902 -2.40242,5.17051 -4.96392,6.07826c-1.54268,0.5467 -2.77574,0.26051 -4.28254,0.07981l-1.66032,-0.73991c0,0 -1.26643,-0.63321 -0.63321,-1.89964z" fill="#000000" stroke="none" stroke-width="0.5" stroke-linecap="butt"/><path d="M34.39112,244.20955c0,-0.33517 0.07934,-0.59099 0.20045,-0.78626v-2.62146c-0.26932,-0.68388 -0.03701,-1.47093 0,-2.205c0.05824,-1.15531 -0.37107,-2.50619 0.28552,-3.45856c0.10032,-0.1455 0.19745,-0.27722 0.29169,-0.39614c0.22456,-1.98197 0.42826,-3.96492 0.42507,-5.96757c0,0 0,-1.41591 1.41591,-1.41591c1.41591,0 1.41591,1.41591 1.41591,1.41591c-0.00277,1.9166 -0.18967,3.81397 -0.40132,5.70907c0.30804,0.22799 0.63134,0.44842 0.99935,0.55305c1.28653,0.36576 3.05255,-0.01501 3.8756,1.03927c1.57031,2.0115 0.58124,4.74843 -0.78547,6.42537c-1.15044,1.41158 -2.77782,2.12436 -4.29286,3.06339l-2.01394,0.06075c0,0 -1.41591,0 -1.41591,-1.41591zM40.53552,239.80661c0.18904,-0.37799 0.50077,-1.49257 0.20651,-1.89618c-0.49962,-0.68527 -1.72382,0.07062 -2.53894,-0.16345c-0.15128,-0.04344 -0.32958,-0.21342 -0.49678,-0.40161c-0.15987,1.54584 -0.28291,3.09584 -0.28291,4.65918c0,0.18283 0,0.3703 0,0.54963c1.17903,-0.79776 2.42907,-1.38178 3.11213,-2.74757z" fill="#000000" stroke="none" stroke-width="0.5" stroke-linecap="butt"/><path d="M57.6693,247.21636c0,1.41591 -1.41591,1.41591 -1.41591,1.41591l-0.40069,-0.01423c-2.47096,-0.35982 -4.98292,0.45171 -6.99924,-1.38718c-1.3507,-1.23185 -3.48674,-4.19774 -3.23225,-6.14264c0.25384,-1.9399 1.95274,-3.67005 3.23823,-4.91711c0.49344,-0.47869 0.98195,-1.01844 1.61833,-1.27856c1.13286,-0.46305 3.83925,-0.55995 4.70101,0.64662c0.91096,1.27544 0.12501,4.31488 -1.05631,5.1724c-0.66419,0.48213 -4.34871,1.08544 -5.43352,1.28287c0,0 -0.07383,0.01342 -0.19059,0.01709c0.26913,0.78044 1.16073,1.46009 1.63867,2.18242c1.47978,2.23644 3.64315,1.27338 6.11615,1.62074l0.00021,-0.01423c0,0 1.41591,0 1.41591,1.41591zM49.74659,239.03711c0.91149,-0.07107 1.81883,-0.15282 2.62408,-0.55049c0.25994,-0.12837 0.18278,-0.55117 0.29968,-0.81647c0.06619,-0.15022 0.32117,-0.27891 0.24764,-0.42567c-0.06169,-0.12313 -0.24631,0.13282 -0.38167,0.15815c-0.30637,0.05735 -0.64925,-0.04584 -0.93095,0.08755c-0.57133,0.27054 -1.2643,0.86004 -1.85879,1.54693z" fill="#000000" stroke="none" stroke-width="0.5" stroke-linecap="butt"/><path d="M68.72244,243.98657c0.05293,0.00891 0.10605,0.01695 0.15937,0.02402zM68.46728,243.93693c0.15641,-0.07097 1.2928,-0.53599 1.88163,0.64167c0.63321,1.26643 -0.63321,1.89964 -0.63321,1.89964l-1.23436,0.33571c-2.59754,-0.39131 -6.43395,-1.0716 -7.36901,-3.99819c-0.85209,-2.66693 0.13434,-5.61095 1.86381,-7.52207c0.48248,-0.53315 0.70974,-1.46358 1.4083,-1.63403c3.12076,-0.76147 5.104,3.02145 3.70933,5.46157c-0.73355,1.28343 -2.74027,1.82866 -4.17795,2.5057c0.15167,1.23047 0.82666,1.19045 2.34168,1.6202c0.74111,0.21023 1.45955,0.52509 2.20977,0.6898zM63.98887,238.35619c0.57112,-0.14127 1.38078,-0.31496 1.67232,-0.6847c0.2862,-0.36296 -0.12668,-1.78248 -0.29976,-1.35388c-0.27167,0.67273 -0.87805,1.15784 -1.26092,1.7741c-0.04475,0.07202 -0.08152,0.16175 -0.11164,0.26448z" fill="#000000" stroke="none" stroke-width="0.5" stroke-linecap="butt"/><path d="M84.31702,246.82818c-1.41591,0 -1.41591,-1.41591 -1.41591,-1.41591l0.01093,-1.5788c0.2601,-1.7712 -0.2328,-2.10856 -0.73866,-3.78235c-0.11647,-0.38537 0.06952,-0.87998 -0.18255,-1.19389c-0.70508,-0.8781 -2.24277,-0.95432 -3.03425,-0.33351c-1.73319,1.35947 -0.79523,3.33733 -1.24184,5.08446v2.00455c0,0.78198 -0.63392,1.41591 -1.41591,1.41591c-0.78198,0 -1.41591,-0.63392 -1.41591,-1.41591l0,-2.00455c-0.29908,-0.61284 -0.10285,-1.3495 -0.02088,-2.04355c-0.04304,-1.41934 -0.17079,-2.7752 -0.53821,-4.22804c0,0 -0.34341,-1.37363 1.03023,-1.71704c1.03907,-0.25977 1.48865,0.46296 1.646,0.83042c0.08045,-0.06498 0.1635,-0.1269 0.2492,-0.18551c2.1963,-1.50201 5.15103,-1.2477 6.98848,0.86922c0.46026,0.53027 0.38299,1.35217 0.61927,2.01338c0.69358,1.94095 1.09681,2.92496 0.86498,5.03765l0.01093,1.22756c0,0 0,1.41591 -1.41591,1.41591z" fill="#000000" stroke="none" stroke-width="0.5" stroke-linecap="butt"/><path d="M95.74293,247.63c-1.41591,0 -1.41591,-1.41591 -1.41591,-1.41591l0.01423,-0.60158c-0.53947,-3.7763 -0.81605,-7.4107 -0.81605,-11.22524c0,0 0,-1.41591 1.41591,-1.41591c1.41591,0 1.41591,1.41591 1.41591,1.41591c0,3.68296 0.26669,7.17848 0.78759,10.82476l0.01423,1.00206c0,0 0,1.41591 -1.41591,1.41591z" fill="#000000" stroke="none" stroke-width="0.5" stroke-linecap="butt"/><path d="M100.8118,249.99318c-1.37363,-0.34341 -1.03023,-1.71704 -1.03023,-1.71704l0.38271,-1.52022c0.19176,-1.53268 0.17638,-3.0071 0.17638,-4.55092c0,0 0,-1.41591 1.41591,-1.41591c1.41591,0 1.41591,1.41591 1.41591,1.41591c0,1.7248 -0.01042,3.35677 -0.22453,5.0709l-0.41911,1.68706c0,0 -0.34341,1.37363 -1.71704,1.03023z" fill="#000000" stroke="none" stroke-width="0.5" stroke-linecap="butt"/><path d="M100.34066,233.385c0,-0.78198 0.63392,-1.41591 1.41591,-1.41591c0.78198,0 1.41591,0.63392 1.41591,1.41591c0,0.78198 -0.63392,1.41591 -1.41591,1.41591c-0.78198,0 -1.41591,-0.63392 -1.41591,-1.41591z" fill="#000000" stroke="none" stroke-width="0.5" stroke-linecap="butt"/><path d="M117.69584,248.30133c-0.88451,1.10564 -1.99015,0.22113 -1.99015,0.22113l-0.90317,-0.72935c-1.32564,-0.884 -2.58653,-1.58121 -3.89537,-2.23918l-0.70188,-0.16197c0.08371,0.79353 0.19944,1.57769 0.35652,2.34855l0.0275,1.0795c0,0 0,1.41591 -1.41591,1.41591c-1.41591,0 -1.41591,-1.41591 -1.41591,-1.41591l0.0275,-0.52414c-0.97072,-4.9345 -0.42841,-10.28669 -0.42841,-15.31177c0,0 0,-1.41591 1.41591,-1.41591c1.41591,0 1.41591,1.41591 1.41591,1.41591c0,2.60202 -0.17188,5.32234 -0.17806,8.01827c1.0608,-0.8614 1.97447,-1.80708 2.97277,-2.80538c0,0 1.0012,-1.0012 2.0024,0c1.0012,1.0012 0,2.0024 0,2.0024c-0.95481,0.95481 -1.85077,1.85643 -2.83876,2.6984c1.54429,0.28217 2.99874,1.72076 4.22661,2.53911l1.10138,0.87429c0,0 1.10564,0.88451 0.22113,1.99015z" fill="#000000" stroke="none" stroke-width="0.5" stroke-linecap="butt"/><path d="M129.03061,249.45901c-0.03765,1.41541 -1.45306,1.37776 -1.45306,1.37776l-1.15114,-0.03857c-0.83316,-0.11147 -4.08174,-0.44621 -5.04834,-0.90787c-2.95316,-1.41045 -3.40145,-4.38408 -3.39741,-7.28443c0.00252,-1.80987 0.02765,-4.22942 1.68158,-5.47148c0.76514,-0.5746 1.67187,-1.16567 2.62867,-1.15351c1.20008,0.01525 3.29169,2.08388 3.32654,3.28827c0.08752,3.02453 -2.64206,3.13525 -4.64356,4.02924c0,0 -0.12282,0.05459 -0.30959,0.09228c0.0333,0.91935 0.17061,1.79924 0.41585,2.42422c0.81999,2.08972 4.05824,1.95547 5.72053,2.17631l0.85218,0.01473c0,0 1.41541,0.03765 1.37776,1.45306zM120.99201,240.26605c0.55578,-0.18572 1.12031,-0.34882 1.67823,-0.52675c0.34454,-0.10988 -0.19453,-0.95708 -0.5553,-0.93203c-0.37975,0.02637 -0.93141,0.92607 -1.0226,1.16418c-0.03559,0.09294 -0.06904,0.19137 -0.10033,0.2946z" fill="#000000" stroke="none" stroke-width="0.5" stroke-linecap="butt"/><path d="M144.0652,242.00455c0,1.41591 -1.41591,1.41591 -1.41591,1.41591h-0.80182c-1.42753,0 -2.75845,-0.01316 -4.10541,0.11071c0.03732,0.66143 0.07149,1.32545 0.10631,1.99358c0.11846,2.27308 0.93304,4.59973 1.37842,6.82621l-0.58767,1.47934c0,0 -1.0012,1.0012 -2.0024,0c-0.57276,-0.57276 -0.4902,-1.14551 -0.31466,-1.53083c-0.47913,-2.1731 -1.17054,-4.39031 -1.30005,-6.59875c-0.03453,-0.58885 -0.06662,-1.17434 -0.09968,-1.75762c-0.86024,0.10479 -1.28209,0.16874 -1.91949,1.25232c0,0 -0.7854,1.17811 -1.96351,0.3927c-1.17811,-0.7854 -0.3927,-1.96351 -0.3927,-1.96351c1.04224,-1.46071 2.47833,-2.23135 4.08277,-2.63334c-0.11023,-1.38473 -0.25895,-2.76815 -0.49267,-4.16621c0,0 -0.23277,-1.39664 1.16387,-1.62942c1.39664,-0.23277 1.62942,1.16387 1.62942,1.16387c0.23668,1.42426 0.39524,2.8348 0.51332,4.24681c1.44974,-0.07569 2.92929,-0.01768 4.30413,-0.01768h0.80182c0,0 1.41591,0 1.41591,1.41591z" fill="#000000" stroke="none" stroke-width="0.5" stroke-linecap="butt"/><path d="M153.2736,253.42895c-1.40168,-0.20024 -1.20144,-1.60192 -1.20144,-1.60192l0.18979,-1.30331c0,-0.78401 0.47031,-1.71443 0.01402,-2.35198c-0.18447,-0.25774 -0.60132,-0.22824 -0.85199,-0.42221c-1.06913,-0.8273 -1.55077,-0.97838 -2.78502,0.65217c-0.23979,0.31679 -0.02226,0.85121 -0.27153,1.16059c-0.0344,0.04269 -0.06927,0.08495 -0.10459,0.12679l0.03419,0.01899l-0.98854,1.77937c-0.23777,0.44794 -0.70899,0.753 -1.25146,0.753c-0.78198,0 -1.41591,-0.63392 -1.41591,-1.41591c0,-0.07635 0.00604,-0.15128 0.01768,-0.22435l0.19385,-1.35698c0.39859,-3.96581 -0.00467,-7.89059 -0.01108,-11.84912c0,0 0,-1.41591 1.41591,-1.41591c1.41591,0 1.41591,1.41591 1.41591,1.41591c-0.00472,2.61507 0.15933,5.21267 0.1705,7.81767c1.14445,-0.74242 2.52912,-1.153 3.54023,-0.97929c0.70189,0.12059 1.16137,0.82475 1.73412,1.248c0.5232,0.38663 1.21562,0.62548 1.55347,1.18143c0.54703,0.90018 0.41493,3.08922 0.41493,4.06257l-0.21112,1.50305c0,0 -0.20024,1.40168 -1.60192,1.20144z" fill="#000000" stroke="none" stroke-width="0.5" stroke-linecap="butt"/><path d="M159.27429,253.43045c0,-0.08681 0.00781,-0.17179 0.02277,-0.25428l-0.22323,0.05383c0,-2.40287 -0.02977,-4.76395 0.20748,-7.1568c0,0 0.14089,-1.40888 1.54977,-1.26799c1.40888,0.14089 1.26799,1.54977 1.26799,1.54977c-0.17175,1.702 -0.19518,3.38914 -0.19579,5.08769c0.29093,0.48472 0.17532,1.06274 0.17532,1.06274l-0.17378,0.04191c0.0001,0.05184 0.0002,0.10369 0.00029,0.15556c0.12761,0.21263 0.20099,0.46154 0.20099,0.72758c0,0.78198 -0.63392,1.41591 -1.41591,1.41591c-0.78198,0 -1.41591,-0.63392 -1.41591,-1.41591z" fill="#000000" stroke="none" stroke-width="0.5" stroke-linecap="butt"/><path d="M159.07384,238.59682c0,-0.78198 0.63392,-1.41591 1.41591,-1.41591c0.78198,0 1.41591,0.63392 1.41591,1.41591c0,0.78198 -0.63392,1.41591 -1.41591,1.41591c-0.78198,0 -1.41591,-0.63392 -1.41591,-1.41591z" fill="#000000" stroke="none" stroke-width="0.5" stroke-linecap="butt"/><path d="M164.49883,254.82091c1.02765,0 1.30944,0.74585 1.38671,1.1549c0.05078,0.03003 0.1064,0.04995 0.16864,0.05603c0.374,0.03657 0.59908,-0.50097 0.96632,-0.58065c0.43937,-0.09533 0.91418,0.20236 1.34648,0.07886c0.65637,-0.18751 0.77621,-1.12315 1.16783,-1.68228c0.22712,-0.32426 1.02148,-1.03288 0.69769,-1.62085c-0.57856,-1.05061 -2.58826,-1.39564 -3.29796,-2.61313c-1.97293,-3.38455 0.87925,-5.48831 3.97905,-6.00411c0,0 1.40168,-0.20024 1.60192,1.20144c0.20024,1.40168 -1.20144,1.60192 -1.20144,1.60192c-0.50492,0.05304 -2.35477,0.33399 -2.39844,1.13323c-0.02924,0.53522 0.66838,0.85174 1.09133,1.18102c0.78959,0.61472 2.42038,1.35836 2.79002,2.29851c0.87247,2.21907 -1.1617,6.16666 -3.3463,7.12051c-0.56895,0.24842 -1.25081,-0.03667 -1.86079,0.07886c-0.63614,0.12049 -1.20097,0.72588 -1.84004,0.62208c-0.79807,-0.12963 -1.38266,-0.83854 -2.07399,-1.25781l-0.59293,-1.35263c0,0 0,-1.41591 1.41591,-1.41591z" fill="#000000" stroke="none" stroke-width="0.5" stroke-linecap="butt"/></g></g></svg>