<svg version="1.1" xmlns="http://www.w3.org/2000/svg" xmlns:xlink="http://www.w3.org/1999/xlink" width="316.03832" height="90.3158" viewBox="0,0,316.03832,90.3158"><g transform="translate(12.46845,-180.56936)"><g data-paper-data="{&quot;isPaintingLayer&quot;:true}" fill-rule="nonzero" stroke-linejoin="miter" stroke-miterlimit="10" stroke-dasharray="" stroke-dashoffset="0" style="mix-blend-mode: normal"><path d="M-9.46845,267.88516v-84.3158h160.26316v84.3158z" fill="#ffffff" stroke="#000000" stroke-width="6" stroke-linecap="butt"/><path d="M300.56987,225.50714h-148.42105" fill="none" stroke="#000000" stroke-width="6" stroke-linecap="round"/><path d="M-3.19911,215.68787c0.8852,-0.7483 1.58996,0.19159 1.58996,0.19159l0.38309,0.55436c0.97803,0.84966 2.88401,3.0279 4.1325,3.54026c0.26446,0.10853 0.54752,-0.16087 0.8272,-0.21034c0.43627,-0.07717 0.88527,-0.06829 1.31726,-0.16899c2.89071,-0.67386 2.82769,-3.26496 3.3103,-5.82301c0.2984,-1.58164 0.73533,-3.13118 1.04101,-4.71124c0.14427,-0.74574 0.36962,-1.47768 0.44292,-2.23501c0.12986,-1.34168 0.03089,-2.69557 0.00158,-4.04585c-2.5782,0 -5.15639,0 -7.73459,0c0,0 -1.13149,0 -1.13149,-1.2014c0,-1.2014 1.13149,-1.2014 1.13149,-1.2014c3.18909,0 6.37817,0 9.56726,0c1.35158,0 2.71307,-0.16204 4.05472,0.01161c0.84038,0.10877 1.64511,0.43968 2.48348,0.56482l0.19433,-0.01208c0,0 1.13149,0 1.13149,1.2014c0,1.2014 -1.13149,1.2014 -1.13149,1.2014l-0.51436,-0.01207c-0.83581,-0.12857 -1.63929,-0.45281 -2.47733,-0.5639c-1.09756,-0.14549 -2.21022,-0.02374 -3.31789,0.00563c0.00022,1.318 0.00007,4.23381 -0.00606,4.29726c-0.23287,2.4099 -1.06046,4.75009 -1.50523,7.11053c-0.50267,2.66774 -0.6106,5.52093 -3.13781,7.06603c-1.07558,0.65759 -2.23349,0.75824 -3.41921,0.89779c-0.55016,0.06474 -1.12819,0.35207 -1.6532,0.16589c-1.63898,-0.58122 -3.71215,-2.86426 -5.03987,-4.01768l-0.72048,-0.91741c0,0 -0.70476,-0.9399 0.18044,-1.68821z" fill="#000000" stroke="none" stroke-width="0.5" stroke-linecap="butt"/><path d="M32.10969,225.19518c-0.62763,0.99963 -1.56909,0.33321 -1.56909,0.33321l-0.98705,-1.02854c-0.57743,-2.05347 -1.50515,-4.07845 -2.31485,-6.07903c-0.58257,1.70121 -1.21707,2.94907 -2.82034,4.23722c-0.48926,0.3931 -0.97516,0.94416 -1.58721,0.98963c-2.14872,0.15961 -2.14902,-0.60823 -3.45511,-1.50737c-0.5583,-0.38435 -1.28808,-0.5281 -1.73124,-1.05509c-0.64582,-0.76801 -1.42989,-1.66508 -1.42194,-2.69464c0.00637,-0.82384 0.90928,-1.34415 1.45765,-1.92702c2.02241,-2.14968 4.42817,-4.23122 6.89376,-5.76462c0,0 0.28894,-0.17896 0.64426,-0.17547c0.20561,-0.22477 0.49331,-0.36443 0.81173,-0.36443c0.23776,0 0.45839,0.07787 0.64051,0.21089l1.05016,0.74337l-0.08925,0.14215l0.37552,0.14915c0.19033,0.65886 0.5427,1.28808 0.571,1.97658c0.02468,0.60061 -0.06781,1.14554 -0.21307,1.67072c0.71828,1.62404 1.18234,3.41458 1.88863,5.0395c0.52975,1.21876 1.09734,2.42991 1.46614,3.71382l0.07598,-0.27606c0,0 0.94145,0.66642 0.31382,1.66604zM25.90197,215.24343c-0.25544,-0.593 -0.45902,-1.07716 -0.47272,-1.15922c-0.00696,-0.0417 -0.01348,-0.08345 -0.01957,-0.12524l-0.01164,0.00265l-0.17727,-0.87836c-1.00649,0.63987 -1.9889,1.33555 -2.8543,2.17178c-0.00395,0.00382 -1.9252,2.04995 -1.98303,2.10129c-0.38975,0.34599 -0.80982,0.65399 -1.2402,0.94059c-0.2082,0.13865 -0.67753,0.06963 -0.66841,0.3304c0.01185,0.33924 0.43742,0.5043 0.70412,0.69151c0.52046,0.36534 2.56551,1.98739 3.31789,1.95239c0.2415,-0.01123 0.3571,-0.34609 0.53884,-0.51532c0.4563,-0.42487 1.01503,-0.74827 1.37521,-1.26691c0.63647,-0.91646 0.75156,-2.01565 1.0763,-3.04937c0.12969,-0.41285 0.28107,-0.80609 0.41476,-1.1962z" fill="#000000" stroke="none" stroke-width="0.5" stroke-linecap="butt"/><path d="M44.29826,222.67921c0.67889,0.96112 -0.2263,1.68196 -0.2263,1.68196l-1.14212,0.77603c-1.25735,0.29598 -4.04867,1.21234 -5.24855,0.42701c-0.68882,-0.45084 -0.90151,-1.42816 -1.31285,-2.16802c-1.35324,-2.434 -2.19751,-5.86208 -1.09478,-8.57655c0.88958,-2.1898 3.85909,-4.58172 5.84169,-5.66249c0,0 1.01203,-0.53728 1.51805,0.53728c0.50602,1.07457 -0.50601,1.61184 -0.50601,1.61184c-1.50156,0.76847 -4.1446,2.88226 -4.78861,4.49594c-0.70873,1.77584 -0.08327,3.77443 0.54432,5.44501c0.28617,0.76176 0.31607,1.77123 0.94582,2.24609c0.25899,0.19529 0.62653,-0.11187 0.94052,-0.16293c0.89533,-0.14556 1.78541,-0.32965 2.66951,-0.53877l0.27525,-0.35269c0,0 0.90519,-0.72084 1.58408,0.24028z" fill="#000000" stroke="none" stroke-width="0.5" stroke-linecap="butt"/><path d="M58.33108,224.44271c-0.62763,0.99963 -1.56909,0.33321 -1.56909,0.33321l-1.08253,-0.7666c-1.41997,-1.09869 -2.93391,-2.05325 -4.29792,-3.23378c-0.01899,-0.01644 -0.03835,-0.03264 -0.05801,-0.04865c-0.05,0.64638 -0.11143,1.29163 -0.18812,1.93536c0.13665,0.07337 0.27399,0.18934 0.40524,0.36354c0.70683,0.93813 -0.17671,1.68865 -0.17671,1.68865l-2.14526,0.86273l-0.39017,-2.70198l0.93248,0.12376l0.18928,-0.16078l0.15564,0.20656l0.96526,0.12811l-0.1174,0.99721l0.41017,0.54439l-0.87882,0.74649c-0.19472,0.16833 -0.4432,0.26925 -0.71387,0.26925c-0.6249,0 -1.13149,-0.53789 -1.13149,-1.2014c0,-0.05695 0.00373,-0.11298 0.01095,-0.16782l0.17496,-1.48615l0.00284,0.00038l-0.00156,-0.01083c0.2133,-1.55898 0.10722,-3.03269 0.16868,-4.60574c0.20042,-5.1302 0.27481,-10.4771 1.44964,-15.46679c0,0 0.27443,-1.16553 1.37213,-0.87415c1.0977,0.29138 0.82327,1.45691 0.82327,1.45691c-0.85291,3.62247 -0.97209,7.32205 -1.06184,11.02625c0.81674,-0.92198 1.814,-1.71241 2.70277,-2.34695c0,0 0.94146,-0.66642 1.56909,0.33321c0.62763,0.99963 -0.31382,1.66604 -0.31382,1.66604c-1.12835,0.79057 -1.87576,1.70972 -2.76312,2.77013c-0.50202,0.59991 -1.08073,0.70897 -0.59099,1.67632c0.37942,0.74945 1.30674,0.9853 1.96261,1.47416c0.93639,0.69796 1.90374,1.34913 2.82837,2.06456l1.04352,0.73835c0,0 0.94145,0.66642 0.31382,1.66604z" fill="#000000" stroke="none" stroke-width="0.5" stroke-linecap="butt"/><path d="M65.50484,226.70134c-0.27443,-1.16553 0.82328,-1.45691 0.82328,-1.45691l1.14313,-0.21192c1.41161,0.22654 1.92265,0.42335 2.90224,-0.74954c0.02312,-0.02768 1.14616,-1.22005 1.02581,-1.56371c-0.07761,-0.22163 -0.44416,-0.08972 -0.64076,-0.20077c-0.5267,-0.2975 -2.11297,-1.5274 -2.39826,-1.96435c-1.22091,-1.86993 -2.24215,-4.59792 -0.36196,-6.34899c0.51193,-0.47678 1.18356,-0.71543 1.77534,-1.07315c0,0 0.9891,-0.58346 1.53859,0.46676c0.5495,1.05022 -0.4396,1.63367 -0.4396,1.63367c-0.5974,0.34145 -1.74431,0.38223 -1.75053,1.10257c-0.01791,2.07382 1.57519,3.12023 2.8917,4.18423c0.51122,0.41316 1.3047,0.64953 1.4853,1.30418c0.50563,1.83286 -1.321,4.7311 -2.86299,5.48125c-1.17971,0.57391 -2.31112,0.27634 -3.48491,0.1065l-0.27424,0.16432c0,0 -1.09771,0.29138 -1.37214,-0.87415z" fill="#000000" stroke="none" stroke-width="0.5" stroke-linecap="butt"/><path d="M85.11416,227.63571c-0.56177,-0.59649 -0.33466,-1.19297 -0.14952,-1.49538c0.06617,-3.31485 0.78203,-6.60715 -0.86438,-9.766c-0.44263,-0.84925 -1.65774,-0.73456 -2.35792,-0.80561c-0.17826,-0.01809 -0.42342,-0.33266 -0.51335,-0.16823c-0.13857,0.25337 0.15601,0.57621 0.13065,0.86796c-0.10333,1.18841 -0.36667,2.35515 -0.52595,3.53658c-0.24756,1.83635 -0.56538,3.54204 -1.04984,5.21931c-0.00123,0.16106 -0.00198,0.32242 -0.00216,0.48413v1.46585c0,0.66351 -0.50658,1.2014 -1.13149,1.2014c-0.6249,0 -1.13149,-0.53789 -1.13149,-1.2014v-1.50495h0.00048c0.00017,-0.04428 0.0004,-0.08853 0.00066,-0.13276c-0.07365,-0.24812 -0.05245,-0.5026 0.00834,-0.7597c0.0505,-3.24859 0.26875,-6.38375 -0.17527,-9.66043c0,0 -0.16002,-1.18932 0.9601,-1.35923c0.59288,-0.08993 0.91677,0.20094 1.09033,0.49469c0.05206,-0.12265 0.12043,-0.23574 0.21151,-0.33551c0.47158,-0.51665 1.29601,-0.44463 1.96705,-0.54447c1.48029,-0.22024 3.50937,0.41455 4.3746,1.82805c2.17834,3.55872 1.26638,7.75292 1.26638,11.59807l-0.50857,1.03763c0,0 -0.80008,0.84952 -1.60017,0z" fill="#000000" stroke="none" stroke-width="0.5" stroke-linecap="butt"/><path d="M94.46885,217.05969c-0.92437,0.56286 -1.82807,1.15171 -2.69929,1.814c-0.24683,0.18764 -0.65748,0.28383 -0.71376,0.60056c-0.10617,0.59749 0.17833,1.20148 0.28749,1.79836c0.10731,0.58675 0.55271,4.24192 1.78128,4.31934c0.94651,0.05965 1.70964,-1.58766 2.09627,-2.24725c0.67845,-1.15741 1.00366,-2.82546 1.27412,-4.11375c0.01475,-0.07024 0.50114,-1.53276 -0.0707,-1.80927c-0.32026,-0.15487 -0.69334,-0.12851 -1.04001,-0.19276l-0.25709,0.03588c0,0 -0.34822,0 -0.65831,-0.20512zM95.74807,214.88964l0.18504,0.00823c1.53307,0.47812 2.46609,0.32864 2.94956,2.38004c0.18263,0.77491 -0.03875,1.60228 -0.16249,2.39021c-0.36146,2.3015 -1.14679,4.52204 -2.52023,6.34733c-0.36991,0.49161 -0.66221,1.10585 -1.17993,1.41206c-3.82439,2.26192 -5.52904,-2.77797 -5.91112,-5.77431c-0.12583,-0.9868 -0.43976,-2.0221 -0.18631,-2.98084c0.18959,-0.71719 0.89356,-1.15535 1.41229,-1.65686c1.06821,-1.03275 2.64717,-1.8336 3.88846,-2.56667c0,0 0.97265,-0.57375 1.52475,0.44081z" fill="#000000" stroke="none" stroke-width="0.5" stroke-linecap="butt"/><path d="M111.60227,217.18967c-0.88354,0.75051 -1.59038,-0.18763 -1.59038,-0.18763l-0.12546,-0.53279c-0.84997,0.67201 -1.74487,1.41431 -2.67519,1.9501c-0.23693,0.13646 -0.58392,0.07605 -0.76026,0.29251c-0.57085,0.70074 -0.23211,3.18845 -0.27212,3.99556c-0.06513,1.31383 0.12383,2.66613 -0.17682,3.94246c-0.004,0.01699 -0.00806,0.03394 -0.01218,0.05088l0.00902,0.00083l-0.18872,2.31665c-0.04418,0.62061 -0.53243,1.10957 -1.12823,1.10957c-0.58658,0 -1.06891,-0.47394 -1.12586,-1.08085l-0.25285,-2.37101c-0.38472,-3.48034 -0.44897,-6.92124 -0.44897,-10.42443c0,0 0,-1.2014 1.13149,-1.2014c1.13149,0 1.13149,1.2014 1.13149,1.2014c0,0.19072 0.00018,0.38127 0.00059,0.57163c0.30305,-0.179 0.66271,-0.2892 0.95758,-0.48202c1.64319,-1.07451 2.44108,-1.61205 4.41168,-2.18851l1.29191,1.34839c0,0 0.70683,0.93814 -0.17671,1.68865z" fill="#000000" stroke="none" stroke-width="0.5" stroke-linecap="butt"/><path d="M122.30287,218.13272c0,1.2014 -1.13149,1.2014 -1.13149,1.2014l-0.43426,-0.03587c-1.14793,0.30333 -2.2849,0.42253 -3.42267,0.48934c-0.07439,0.91332 0.08253,1.84051 0.02477,2.75703c-0.11161,1.7709 -0.72256,3.42333 -0.70584,5.18216l-1.13149,-0.09406l-1.13149,0.09406c0.00047,-0.06281 0.00159,-0.12542 0.00333,-0.18784l-0.00333,-0.00028c0,0 0,-0.04002 0.00688,-0.10546c0.06758,-1.72813 0.59579,-3.31771 0.70465,-5.05893c0.02644,-0.42293 -0.016,-1.6856 -0.014,-2.48549c-0.74873,0.0359 -1.50112,0.08642 -2.26045,0.18852c0,0 -1.12275,0.14902 -1.26309,-1.0431c-0.14034,-1.19213 0.98241,-1.34115 0.98241,-1.34115c0.95076,-0.1247 1.89224,-0.1639 2.82939,-0.1973c0.3215,-1.8392 0.75372,-3.67525 0.97184,-5.53188c0,0 0.14034,-1.19212 1.26309,-1.0431c1.12275,0.14901 0.98241,1.34114 0.98241,1.34114c-0.20258,1.71734 -0.58345,3.41724 -0.89451,5.11755c0.83541,-0.07019 1.67065,-0.18857 2.50925,-0.41228l0.98311,-0.03587c0,0 1.13149,0 1.13149,1.2014z" fill="#000000" stroke="none" stroke-width="0.5" stroke-linecap="butt"/><path d="M134.52771,226.22184c0,1.2014 -1.13149,1.2014 -1.13149,1.2014l0.15167,-0.12683c-1.55526,0.81508 -2.60093,1.00972 -4.30682,0.87629c-0.55373,-0.04331 -1.1386,0.13878 -1.66505,-0.04853c-0.59923,-0.2132 -1.05559,-0.73816 -1.58339,-1.10724c-0.67443,-1.35141 -1.00853,-2.97656 -1.62886,-4.34666c-0.20089,-0.14914 -0.37673,-0.39168 -0.4173,-0.78613c-0.79958,-1.21165 -2.0723,-1.61754 -1.35358,-3.61043c0.26825,-0.7438 1.0433,-1.14843 1.61586,-1.66298c1.25436,-1.12727 3.54224,-3.12008 5.29316,-2.62766c0.53207,0.14963 0.8241,0.77516 1.2454,1.15125c0.45349,0.40483 1.1476,0.61191 1.37862,1.19119c0.58458,1.46587 -0.4544,4.39254 -1.53766,5.35385c-1.15201,1.02232 -2.40866,1.21505 -3.74427,1.23907c0.27225,0.85282 0.51754,1.73015 0.84512,2.50833c1.35861,0.99571 3.46409,0.46624 4.84674,-0.27948l0.86036,-0.12683c0,0 1.13149,0 1.13149,1.2014zM125.77906,220.52195c0.80172,0.01301 2.04416,0.00895 2.46868,-0.14031c1.3282,-0.46701 1.22721,-1.20121 1.55493,-2.46434c0.05581,-0.21511 0.36042,-0.41658 0.25738,-0.61103c-0.13137,-0.24792 -0.53534,-0.13997 -0.74744,-0.31376c-0.22848,-0.18721 -0.2754,-0.57853 -0.52631,-0.72994c-0.26371,-0.15913 -2.13786,1.50642 -2.20365,1.55295c-0.62125,0.43938 -1.41559,0.67776 -1.87197,1.30494c-0.081,0.11131 0.06435,0.28195 0.14658,0.39223c0.27266,0.36568 0.63373,0.65909 0.92179,1.00926z" fill="#000000" stroke="none" stroke-width="0.5" stroke-linecap="butt"/><path d="M141.29199,223.32727c0.00208,-0.82622 0.05806,-3.21637 -1.02733,-2.87314c-0.70051,0.22153 -1.15204,0.97725 -1.81152,1.31188c-0.185,0.09387 -0.61057,-0.11669 -0.60773,0.101c0.01635,1.25333 0.99058,0.99554 1.58674,1.54755c0.19345,0.17912 0.10662,0.64106 0.34976,0.72837c0.53563,0.19235 1.00987,-0.48965 1.51007,-0.81566zM139.05818,226.41954c-0.49546,-0.11701 -0.66741,-0.82134 -1.06761,-1.15281c-0.36065,-0.29871 -0.95808,-0.30302 -1.19315,-0.71965c-0.57741,-1.02338 -1.21742,-2.18808 -1.11788,-3.37637c0.02954,-0.35256 2.14967,-1.89659 2.61414,-2.17878c1.3529,-0.82194 1.846,-1.34259 3.18092,-0.65612c-0.00028,-3.07761 0.00306,-6.15523 0.00306,-9.23281c0,0 0,-1.2014 1.13149,-1.2014c1.13149,0 1.13149,1.2014 1.13149,1.2014c0,4.73392 0.00656,9.46792 -0.00146,14.20184c0.03531,0.06383 0.06808,0.13471 0.09771,0.21337c0.2212,0.58718 0.03487,0.9889 -0.19125,1.23772l-0.09119,0.67772c-0.07054,0.59155 -0.54619,1.04899 -1.12246,1.04899c-0.40625,0 -0.7625,-0.22733 -0.96206,-0.56871c-0.75932,0.38502 -1.58387,0.70113 -2.41173,0.50561z" fill="#000000" stroke="none" stroke-width="0.5" stroke-linecap="butt"/><path d="M26.98458,246.72681c0,1.2014 -1.13149,1.2014 -1.13149,1.2014l-0.69153,-0.01208c-0.43872,-0.06749 -0.88697,-0.08464 -1.31616,-0.20246c-0.27653,-0.07591 -0.50177,-0.43514 -0.7814,-0.37335c-0.32371,0.07154 -0.41374,0.62156 -0.73415,0.70828c-2.02061,0.54686 -4.89779,-1.42398 -5.51718,-3.55779c-0.43436,-1.49636 -0.16219,-4.16648 0.69879,-5.45193c0.75606,-1.1288 2.21076,-1.5141 3.15774,-2.4251c1.07771,-1.03677 1.71805,-2.21265 3.48812,-2.3728c0.59514,-0.05385 1.01117,0.67536 1.51676,1.01303c0,0 0.88354,0.75052 0.17671,1.68865c-0.70683,0.93813 -1.59038,0.18762 -1.59038,0.18762c-0.59397,-1.14602 -1.52678,0.74665 -2.08198,1.2739c-1.62528,1.54342 -3.12337,1.47856 -3.16656,3.99589c-0.00742,0.43232 -0.16014,0.87529 -0.06378,1.2954c0.13384,0.58351 1.92949,2.43419 2.63271,2.08578c0.38678,-0.19162 0.61509,-0.73221 1.03757,-0.79667c0.9602,-0.14651 1.90261,0.40953 2.86323,0.55291l0.3715,-0.01208c0,0 1.13149,0 1.13149,1.2014z" fill="#000000" stroke="none" stroke-width="0.5" stroke-linecap="butt"/><path d="M35.46618,239.06741c-0.73217,0.46683 -1.3727,0.98541 -2.04506,1.69727c-0.2122,0.22466 -0.57165,0.36088 -0.6396,0.67077c-0.15075,0.68748 0.43423,2.71969 0.80449,3.33845c0.27224,0.45496 1.70103,-0.07399 1.90544,-0.38569c0.72608,-1.10724 1.67976,-3.28604 0.82559,-4.42448zM37.26092,237.57853l0.80618,0.86184c0.31162,0.53812 0.81023,0.99667 0.93488,1.61436c0.25421,1.25969 -0.30474,2.49973 -0.77481,3.58304c-0.86507,1.99359 -1.9846,4.05614 -4.52482,3.71891c-2.37936,-0.31588 -3.60422,-4.48935 -3.08437,-6.62565c0.1231,-0.50588 1.65114,-2.2178 2.12212,-2.63379c1.18608,-1.04759 1.52289,-1.12517 2.88292,-1.85095c0,0 1.01203,-0.53728 1.51805,0.53729c0.14578,0.30958 0.16556,0.57456 0.11985,0.79495z" fill="#000000" stroke="none" stroke-width="0.5" stroke-linecap="butt"/><path d="M44.66795,247.37602c0.27443,1.16553 -0.82328,1.45691 -0.82328,1.45691l-1.14313,0.21192c-0.54713,-0.11141 -1.16069,-0.03526 -1.64139,-0.33424c-1.52571,-0.94894 -1.94725,-3.45114 -1.98592,-5.11539c-0.01904,-0.81966 -0.19269,-1.70071 0.10509,-2.45721c0.24769,-0.62924 0.91327,-0.96224 1.41073,-1.39367c1.0589,-0.91835 2.17431,-1.63315 3.42034,-2.21091c0,0 1.04,-0.47326 1.48571,0.631c0.44571,1.10426 -0.59428,1.57752 -0.59428,1.57752c-1.14646,0.50937 -1.92142,1.2055 -2.95784,1.9277c-0.23688,0.16506 -0.61902,0.20459 -0.71533,0.48752c-0.13978,0.41064 0.06562,0.87054 0.10509,1.30517c0.13482,1.48443 0.08968,3.12384 1.68783,3.20385l0.27424,-0.16432c0,0 1.0977,-0.29138 1.37213,0.87414z" fill="#000000" stroke="none" stroke-width="0.5" stroke-linecap="butt"/><path d="M54.99405,249.59932c0.18944,0.17701 0.33798,0.45458 0.33798,0.88988c0,1.2014 -1.13149,1.2014 -1.13149,1.2014l-1.27488,-0.91001c-0.31919,-1.38684 -0.37695,-2.56771 -0.38652,-3.90569c-0.09402,0.13915 -0.19053,0.27623 -0.28787,0.41174c-0.41228,0.57398 -2.11117,2.27169 -2.78215,2.13919c-2.05263,-0.40533 -1.65813,-2.4317 -1.7458,-3.79705c-0.06355,-0.98978 -0.5012,-2.01878 -0.22522,-2.96659c0.18419,-0.63258 0.95842,-0.84791 1.45324,-1.25085c0.23538,-0.19168 2.45968,-1.88061 2.64959,-1.89903c0.50608,-0.04911 0.95931,0.30943 1.42657,0.55975c0.491,0.03052 0.89789,0.39347 1.02391,0.87995l0.52421,1.85533l-0.01622,0.00517c0.01267,0.02715 0.02517,0.0544 0.03748,0.08177c0.26843,0.59644 0.20311,2.48655 0.20363,3.08007c0.00116,1.33644 -0.03016,2.39853 0.19354,3.62498zM50.23681,243.38883c-0.20493,0.12858 -0.64121,0.00359 -0.67282,0.2541c-0.07687,0.60925 0.34232,1.18086 0.41484,1.79072c0.03328,0.27982 0.04385,0.5645 0.03153,0.84773c0.16825,-0.16916 0.3566,-0.336 0.46996,-0.49062c0.28228,-0.38502 0.55874,-0.78785 0.73472,-1.23858c0.22267,-0.57029 0.30237,-1.1921 0.45076,-1.78916l0.06674,-0.63779c-0.42672,0.10351 -0.80616,0.83096 -1.49572,1.2636z" fill="#000000" stroke="none" stroke-width="0.5" stroke-linecap="butt"/><path d="M56.61248,250.11295c0,-0.1339 0.02063,-0.26268 0.0587,-0.38296c-0.08441,-0.28555 -0.17477,-0.87532 0.33162,-1.28933c0.26881,-1.55958 0.48385,-3.11094 0.68264,-4.69442c0,0 0.14954,-1.19086 1.2711,-1.03208c1.12156,0.15878 0.97202,1.34965 0.97202,1.34965c-0.25028,1.99257 -0.52706,3.93839 -0.89791,5.90852l-0.16346,-0.0053c0.00545,0.04783 0.00826,0.09653 0.00826,0.14593c0,0.66351 -0.50659,1.2014 -1.13149,1.2014c-0.6249,0 -1.13149,-0.53789 -1.13149,-1.2014z" fill="#000000" stroke="none" stroke-width="0.5" stroke-linecap="butt"/><path d="M58.56137,237.50898c0,-0.66351 0.50658,-1.2014 1.13149,-1.2014c0.6249,0 1.13149,0.53788 1.13149,1.2014c0,0.66351 -0.50659,1.2014 -1.13149,1.2014c-0.6249,0 -1.13149,-0.53789 -1.13149,-1.2014z" fill="#000000" stroke="none" stroke-width="0.5" stroke-linecap="butt"/><path d="M70.85466,253.19555c-1.13149,0 -1.13149,-1.20141 -1.13149,-1.20141l0.04855,-0.96868c-1.25197,-1.79262 -2.52051,-3.47442 -3.8199,-5.17324c-0.16581,-0.21678 0.01821,0.55909 0.00148,0.83778c-0.0186,0.30985 -0.06391,0.6173 -0.10372,0.9252c0.06741,1.01111 0.11272,2.02328 0.11272,3.06211v1.31683c0,0.66351 -0.50658,1.20141 -1.13149,1.20141c-0.5825,0 -1.06219,-0.46737 -1.12461,-1.0682l-0.17531,-1.48914l0.01413,-0.00188c-0.00713,-0.02406 -0.01403,-0.04822 -0.02068,-0.07249c-0.21029,-0.7677 -0.03564,-1.59988 -0.00046,-2.39852c0.01232,-0.2797 0.02112,-0.57432 0.03485,-0.87404c-0.06123,-0.8334 -0.13569,-1.66926 -0.2091,-2.52501c0,0 -0.10244,-1.19647 1.0244,-1.30524c0.34414,-0.03322 0.59273,0.05531 0.77205,0.19431c0.2902,-0.11882 0.63472,-0.18711 1.04414,-0.19255c0.58441,-0.00778 0.99704,0.64963 1.47349,1.00905c1.91415,1.44397 3.06017,3.79049 4.27388,5.85732l0.04855,1.66498c0,0 0,1.20141 -1.13149,1.20141z" fill="#000000" stroke="none" stroke-width="0.5" stroke-linecap="butt"/><path d="M80.06531,248.99417c0.23,-0.19012 0.87052,-0.59895 1.51104,0.08115c0.80008,0.84952 0,1.69904 0,1.69904l-0.81724,0.52793c-1.49203,0.21203 -3.03066,1.41999 -4.59169,0.6224c-0.94276,-0.4817 -1.13845,-1.83531 -1.65325,-2.65909c-1.04822,-1.67738 -2.16295,-3.42176 -1.08264,-5.60892c0.6265,-1.26839 3.73968,-2.77765 4.98087,-2.16089c1.50284,0.74678 1.69355,2.84604 1.01788,4.17853c-0.39456,0.77812 -2.02672,1.72277 -3.02725,2.26817c0.00169,0.00266 0.00337,0.00531 0.00503,0.00795c0.35875,0.56856 0.26672,1.51774 0.82715,1.85577c0.19282,0.1163 0.4462,-0.04126 0.65597,-0.11763c0.71509,-0.26032 1.43406,-0.5339 2.17412,-0.69439zM75.23411,245.88273c0.75314,-0.39433 1.73965,-0.92788 2.28168,-1.48954c0.16046,-0.16627 0.17745,-0.68409 -0.04515,-0.71257c-0.35488,-0.0454 -1.27918,0.78148 -1.38188,0.8478c-0.22973,0.14836 -0.59014,0.1299 -0.72412,0.37745c-0.1736,0.32076 -0.19652,0.65145 -0.13053,0.97687z" fill="#000000" stroke="none" stroke-width="0.5" stroke-linecap="butt"/></g></g></svg>