<svg version="1.1" xmlns="http://www.w3.org/2000/svg" xmlns:xlink="http://www.w3.org/1999/xlink" width="469.35063" height="92.66415" viewBox="0,0,469.35063,92.66415"><g transform="translate(-2.86569,-3.60192)"><g data-paper-data="{&quot;isPaintingLayer&quot;:true}" fill="#ff0000" fill-rule="nonzero" stroke="none" stroke-linecap="butt" stroke-linejoin="miter" stroke-miterlimit="10" stroke-dasharray="" stroke-dashoffset="0" style="mix-blend-mode: normal"><path d="M34.32556,17.09073c-4.5013,0.3659 -8.66934,1.96128 -12.85533,3.98424c-2.29231,1.1078 -3.58238,3.68598 -5.73711,5.0421c-1.57769,0.99295 -5.01282,0.90496 -5.64037,3.45571c-0.68675,2.79135 0.1807,7.40743 0.1807,10.33056c0,4.5125 0.4282,8.4229 0.86318,12.85773c0.27141,2.76721 -0.67134,5.62486 -0.07706,8.3411c0.51379,2.34834 2.23298,4.25812 3.30643,6.40903c3.37159,8.47272 7.54112,12.24027 15.37856,16.48925c0.49726,0.26958 5.08884,3.36219 6.10419,3.56392c6.42167,1.27589 13.85372,0.88568 20.39323,1.33789c5.98671,0.41398 11.94399,1.39895 17.00768,-2.47681c8.94087,-6.84336 10.20038,-17.63037 12.75717,-27.58543c0.07659,-5.39886 1.96622,-7.9976 3.66568,-12.97754c1.38821,-4.06788 1.62096,-10.85945 0.77305,-14.97668c-0.29003,-1.40829 -1.23736,-2.60773 -1.65336,-3.98408c-0.23311,-0.77126 0.3123,-1.85139 -0.27659,-2.40129c-2.17784,-2.03365 -5.68231,-2.02811 -8.11533,-3.74832c-3.28423,-2.32204 -5.75534,-5.11647 -9.72654,-6.59657c-3.39783,-1.2664 -6.81122,-0.81323 -10.1511,-1.6361c-1.27419,-0.31393 -2.26146,-1.39315 -3.52126,-1.76063c-3.19894,-0.93313 -6.98604,1.96652 -9.28753,3.34741c-2.34898,0.59874 -4.65357,1.44034 -6.81528,2.53723l-3.10218,1.07136c0,0 -2.04744,0.68248 -3.47082,-0.62407zM37.99591,10.22334c2.24761,-1.09498 4.59592,-2.02957 7.02286,-2.62354c4.22604,-2.53563 8.40225,-4.84279 13.60062,-3.6951c1.28144,0.28291 2.24936,1.43752 3.52126,1.76063c3.51407,0.89269 7.35258,0.51968 10.97643,1.88515c4.54089,1.71102 7.64862,4.77517 11.40099,7.48845c2.90458,2.10026 7.00235,2.47517 9.49095,5.05481c1.12769,1.16895 0.94159,3.11024 1.48404,4.64122c0.57537,1.62388 1.53757,3.12822 1.8679,4.81905c1.03184,5.28175 0.69878,13.32136 -0.98758,18.47524c-1.58798,4.85321 -3.4625,6.5894 -3.37683,11.67125c-2.86066,11.72105 -4.80527,24.43166 -15.41287,32.2759c-6.783,5.01598 -13.81478,4.50276 -21.82626,3.95168c-6.92598,-0.47641 -14.99703,-0.05708 -21.7617,-1.56935c-2.53321,-0.56631 -5.45976,-2.98925 -7.7072,-4.22209c-2.17235,-1.19165 -4.55859,-2.00132 -6.62991,-3.36101c-5.75976,-3.78091 -9.24244,-10.22289 -11.71708,-16.37942c-0.43586,-0.86997 -3.62337,-7.17399 -3.73608,-7.67599c-0.44035,-1.9613 0.14877,-7.05285 -0.07706,-9.26518c-0.47249,-4.62878 -0.89745,-8.84433 -0.89745,-13.55168c0,-3.32682 -0.93153,-9.59248 0.1807,-12.5576c0.75698,-2.01804 2.19061,-3.81465 3.83956,-5.20262c1.27094,-1.06978 3.19346,-1.02963 4.60508,-1.90544c2.43463,-1.5105 4.03725,-4.21539 6.58728,-5.52167c5.74795,-2.94446 11.82609,-4.65669 18.2393,-4.74335c0,0 0.60478,0 1.31307,0.25064z" stroke-width="0.5"/><path d="M66.75751,74.38254c0,-1.38071 1.11929,-2.5 2.5,-2.5c1.38071,0 2.5,1.11929 2.5,2.5c0,1.38071 -1.11929,2.5 -2.5,2.5c-1.38071,0 -2.5,-1.11929 -2.5,-2.5z" stroke-width="0.5"/><text transform="translate(103.54865,55.92323) scale(0.615,0.615)" font-size="40" xml:space="preserve" fill="#ff0000" fill-rule="nonzero" stroke="none" stroke-width="1" stroke-linecap="butt" stroke-linejoin="miter" stroke-miterlimit="10" stroke-dasharray="" stroke-dashoffset="0" font-family="Sans Serif" font-weight="normal" text-anchor="start" style="mix-blend-mode: normal"><tspan x="0" dy="0">Ooba wooba grooba shmooba?</tspan></text><path d="M45.54022,26.74164c-0.2231,-0.15197 -0.45926,-0.28456 -0.71207,-0.39245c-1.35493,-0.57826 -3.01106,2.16062 -3.35131,2.43596c-3.33993,2.70276 -7.52865,2.5418 -5.73581,7.4879c1.09818,3.02967 5.28885,5.57223 8.52369,5.27389c0.69827,-0.0644 1.7016,-0.36276 2.81183,-0.69847c4.0312,-2.25976 9.60097,-4.05559 4.845,-8.62949c-0.54846,-0.52746 -1.28727,-0.79754 -1.98313,-1.1257c-0.07681,-0.03417 -0.15028,-0.07014 -0.22011,-0.10697c-0.08043,-0.04045 -0.15993,-0.08217 -0.23811,-0.12567l-2.21851,-1.09919c0,0 -2.01321,-1.0066 -1.72147,-3.01981zM37.87128,46.36452c-4.9938,-2.25036 -8.8807,-7.14319 -8.66313,-12.72064c0.06345,-1.62649 0.24394,-3.39965 1.16396,-4.74243c0.88653,-1.2939 2.59186,-1.76717 3.89463,-2.64061c3.77855,-2.53333 6.78574,-7.01818 12.10281,-5.82975c1.78605,0.3992 5.02861,3.81134 6.62265,5.42102c5.41836,3.57088 10.14953,10.31075 4.28618,16.22962c-0.40232,0.40613 -0.90614,0.66414 -1.44706,0.86872c0.20046,0.35055 0.41392,0.68686 0.66252,0.98215c0.82062,0.97474 2.0584,1.62658 2.64949,2.75535c2.15038,4.1064 1.6121,6.79527 1.63449,11.24765c0,0.78094 0.02285,7.55848 -0.0818,7.97526c-2.27483,9.06015 -15.04316,17.0969 -24.14613,13.03157c-7.55714,-3.37497 -11.32469,-10.65405 -10.97852,-18.58259c0.07817,-1.79043 -0.42222,-3.82974 0.52573,-5.35064c0.83959,-1.34704 2.81587,-1.46662 4.20358,-2.23714c1.72575,-0.95822 3.25919,-2.2657 4.65114,-3.6653c1.01718,-1.02277 1.96072,-1.9331 2.91944,-2.74225zM49.1066,46.6294c-0.44643,0.37881 -0.87809,0.77355 -1.29412,1.18002c-3.98743,1.36725 -5.59804,2.69855 -8.53631,5.62168c-2.34131,2.32925 -3.09168,3.45338 -6.25796,4.81955c-0.57124,0.24647 -1.52495,-0.339 -1.85703,0.1871c-0.35454,0.5617 0.4754,1.25977 0.52573,1.92209c0.42782,5.62994 1.38755,10.21269 7.2033,12.93257c2.96896,1.38851 5.27425,0.03472 7.88025,-1.17653c0.94134,-0.43753 4.25432,-1.49261 5.15107,-2.40305c3.25767,-3.3074 2.74077,-7.59971 2.74077,-11.77723c0.01236,-2.10447 0.47103,-5.97042 -0.78976,-8.14629c-0.50736,-0.8756 -1.6324,-1.25465 -2.19899,-2.09313c-0.4128,-0.6109 -0.05477,-1.67396 -0.64507,-2.11572c-0.36676,-0.27448 -0.68596,0.6539 -1.12244,0.79296c-0.26584,0.0847 -0.53229,0.17067 -0.79946,0.25598z" stroke-width="0.5"/></g></g></svg>