<svg version="1.1" xmlns="http://www.w3.org/2000/svg" xmlns:xlink="http://www.w3.org/1999/xlink" width="315.47368" height="90.3158" viewBox="0,0,315.47368,90.3158"><g transform="translate(132.47367,-179.52631)"><g data-paper-data="{&quot;isPaintingLayer&quot;:true}" fill-rule="nonzero" stroke-linejoin="miter" stroke-miterlimit="10" stroke-dasharray="" stroke-dashoffset="0" style="mix-blend-mode: normal"><path d="M19.73685,266.84211v-84.3158h160.26316v84.3158z" fill="#ffffff" stroke="#000000" stroke-width="6" stroke-linecap="butt"/><path d="M18.94738,223.42105h-148.42105" fill="none" stroke="#000000" stroke-width="6" stroke-linecap="round"/><path d="M45.01703,219.53713c-0.19667,-0.22994 -0.57734,-0.18857 -0.84797,-0.32389c-1.01854,-0.50927 -2.17876,-1.67497 -3.4558,-1.2908c-0.43245,0.13009 -0.7472,0.51417 -1.15515,0.70784c-0.329,0.15619 -0.77944,0.08009 -1.04016,0.33438c-0.35786,0.34903 -0.26235,1.59795 -0.24672,1.97575c0.01751,0.42344 -0.17787,0.93325 0.08098,1.26881c0.20279,0.26289 2.07537,0.16124 2.22727,0.16048c1.39667,-0.00699 2.6711,-0.16739 4.05238,-0.35201l0.7649,-0.33535l-0.09802,-1.17622c-0.10315,-0.32221 -0.06307,-0.71334 -0.28172,-0.96898zM45.33445,224.52321c-1.92936,0.28958 -4.42739,0.91429 -6.36454,0.43186c-0.89434,-0.22273 -1.9616,-0.33008 -2.56849,-1.02372c-0.62064,-0.70937 -0.57365,-1.80336 -0.71969,-2.73452c-0.20008,-1.2757 0.09824,-3.03621 0.95428,-4.02926c0.42739,-0.4958 1.18053,-0.56635 1.76218,-0.86662c0.55504,-0.28654 1.03727,-0.75867 1.64719,-0.89349c2.23861,-0.49487 3.55302,0.49044 5.35154,1.51153c0.32797,0.1862 0.64257,0.33952 0.93071,0.49412c0.33206,-4.11818 0.55712,-8.1771 0.55712,-12.35783c0,0 0,-1.30108 1.30108,-1.30108c1.30108,0 1.30108,1.30108 1.30108,1.30108c0,5.21328 -0.34277,10.25352 -0.81895,15.43l-0.05167,0.09046l0.0311,0.00777l-0.5939,2.3756c-0.13149,0.5794 -0.64965,1.01193 -1.26884,1.01193c-0.04182,0 -0.08317,-0.00197 -0.12398,-0.00583z" fill="#000000" stroke="none" stroke-width="0.5" stroke-linecap="butt"/><path d="M56.1925,237.38221c-1.30108,0 -1.30108,-1.30108 -1.30108,-1.30108l0.03885,-0.51573c0.54996,-2.1779 1.66318,-3.89773 2.45166,-5.96095c0.46061,-1.20527 0.93704,-2.41494 1.43025,-3.62231l-0.1804,-0.12816c-1.38915,-2.8046 -2.55801,-5.63343 -4.32251,-8.26716c0,0 -0.72171,-1.08257 0.36086,-1.80428c1.08257,-0.72171 1.80428,0.36086 1.80428,0.36086c1.44576,2.17835 2.51036,4.48376 3.62244,6.79196c0.80332,-1.84403 1.64826,-3.6692 2.53827,-5.45111c0,0 0.58186,-1.16373 1.74559,-0.58186c1.16373,0.58186 0.58186,1.74559 0.58186,1.74559c-1.09633,2.19025 -2.11313,4.44536 -3.07097,6.71923c0.06016,0.24378 0.04211,0.53949 -0.1317,0.88711c-0.13185,0.2637 -0.29358,0.43777 -0.46487,0.54928c-0.51123,1.24787 -1.00608,2.49846 -1.48795,3.7442c-0.75781,1.95913 -1.84149,3.58171 -2.35234,5.64872l0.03885,-0.11539c0,0 0,1.30108 -1.30108,1.30108z" fill="#000000" stroke="none" stroke-width="0.5" stroke-linecap="butt"/><path d="M63.03545,234.29826c0.58186,-1.16373 1.74559,-0.58186 1.74559,-0.58186l0.68733,0.46493c1.43551,-0.70166 3.13152,-1.48757 3.70531,-3.12629c0.22884,-0.65354 0.11567,-2.89147 0.12974,-3.18075c0.01619,-0.33272 0.28991,-0.68331 0.15395,-0.98741c-0.10772,-0.24094 -0.49967,-0.17704 -0.73121,-0.30373c-1.54976,-0.84796 -3.10495,-1.34127 -3.02362,-3.58716c0.09034,-2.495 3.84451,-4.54626 5.72127,-5.49311c0,0 1.16373,-0.58186 1.74559,0.58186c0.58186,1.16373 -0.58186,1.74559 -0.58186,1.74559c-1.11032,0.54922 -3.99311,1.94937 -4.28707,3.31423c-0.03704,0.17199 0.12209,0.3558 0.26734,0.45507c0.88573,0.60537 2.63705,1.00675 3.18384,2.05938c0.34121,0.65687 0.12923,1.47547 0.15395,2.21526c0.03063,0.91667 0.0869,3.03594 -0.27059,4.02525c-1.03764,2.87159 -3.63339,4.00874 -6.30303,4.88038l-1.71467,-0.73607c0,0 -1.16373,-0.58186 -0.58186,-1.74559z" fill="#000000" stroke="none" stroke-width="0.5" stroke-linecap="butt"/><path d="M74.28835,239.56479c0.92001,-0.92001 1.84001,0 1.84001,0l0.1131,0.12065c0.21234,0.24246 0.3236,0.65229 0.63702,0.72737c0.28641,0.06861 0.51549,-0.29338 0.79567,-0.38416c2.24616,-0.72773 2.67989,-1.24434 3.51001,-3.57044c0.38769,-1.08635 0.33555,-2.28306 0.55134,-3.41615c0.29587,-1.55363 0.56332,-3.02955 0.74922,-4.5401c-1.51396,1.66075 -3.70922,2.80654 -5.19901,0.22553c-0.55221,-0.9567 -0.19224,-2.2048 -0.17464,-3.30929c0.04437,-2.78457 0.60456,-3.85954 2.66194,-5.54348c0.5905,-0.48332 1.07468,-1.16079 1.78962,-1.42756c0.55231,-0.20608 1.16239,-0.12198 1.76225,-0.08917c0.23207,-0.35647 0.63409,-0.59215 1.09116,-0.59215c0.71857,0 1.30108,0.58252 1.30108,1.30108v1.40117h-0.08824l0.07567,0.18046c-0.04184,0.15078 -0.08344,0.30185 -0.12493,0.45313c0.09547,0.71343 -0.23523,1.47637 -0.2632,2.21116c-0.05626,1.47809 -0.10969,2.95661 -0.20177,4.43291c-0.12746,2.04349 -0.43771,3.76093 -0.82041,5.76974c-0.44607,2.34141 -0.53186,5.32367 -2.29189,7.21401c-0.99854,1.07247 -4.10002,2.58445 -5.66178,2.22926c-0.70757,-0.16092 -1.17665,-0.84953 -1.76498,-1.2743l-0.28724,-0.27968c0,0 -0.92001,-0.92001 0,-1.84001zM82.75407,221.73896c0.0205,-0.34953 0.05119,-0.66236 0.09651,-0.90942c-0.13185,-0.00342 -0.26096,0.01121 -0.38514,0.05818c-0.55055,0.20822 -2.46811,1.95394 -2.62573,2.61103c-0.15797,0.65855 -0.0765,1.3524 -0.12872,2.02761c-0.05267,0.68104 -0.54016,2.38114 0.05642,2.04845c1.86467,-1.03985 2.46717,-3.66179 2.98666,-5.83585z" fill="#000000" stroke="none" stroke-width="0.5" stroke-linecap="butt"/><path d="M102.26419,219.67855c-0.41144,1.23432 -1.64576,0.82288 -1.64576,0.82288l-1.47914,-0.53133c-0.85512,-0.53885 -2.32578,-1.91524 -3.47339,-1.17211c-0.32488,0.21038 -0.49515,0.60009 -0.7894,0.85154c-0.14179,0.12116 -0.30717,0.22939 -0.48098,0.33306c-0.11641,2.09376 -0.07124,4.18687 -0.07124,6.29037v1.40117c0,0.71857 -0.58252,1.30108 -1.30108,1.30108c-0.61919,0 -1.13735,-0.43253 -1.26884,-1.01193l-0.62452,-2.49807l0.07479,-0.0187c-0.71904,-1.53024 -1.20675,-3.17766 -0.84888,-4.67682c0.1783,-0.74691 0.76646,-1.58132 1.54542,-2.34251c0.00878,-0.09678 0.01796,-0.19356 0.02756,-0.29036c0,0 0.12946,-1.29463 1.42409,-1.16516c0.11833,0.01183 0.22476,0.0334 0.32048,0.06282c1.05993,-0.66636 2.17467,-1.09997 3.02688,-1.06801c1.27822,0.04794 2.79579,1.16252 3.81826,1.797l0.92287,0.26933c0,0 1.23432,0.41144 0.82288,1.64576z" fill="#000000" stroke="none" stroke-width="0.5" stroke-linecap="butt"/><path d="M115.76139,233.55979c0.92001,0.92001 0,1.84001 0,1.84001l-1.30417,0.56817c-0.46706,-0.06672 -0.93411,-0.13344 -1.40117,-0.20017c0,0 -1.28801,-0.184 -1.10401,-1.47201c0.03642,-0.25494 0.1161,-0.45222 0.22047,-0.60466c-0.03191,-1.02824 -0.09848,-2.05023 -0.22407,-3.05791c-0.21399,-1.71692 -1.17288,-3.19061 -1.65793,-4.74862c-0.24706,0.8345 -0.52611,1.65963 -0.84484,2.46845c-0.48076,1.22001 -1.18638,3.01958 -2.55279,3.54119c-2.28882,0.87372 -4.79543,-1.98784 -5.13538,-3.95623c-0.54942,-3.18123 2.22613,-5.24254 4.53831,-6.73919c0.55793,-0.36115 1.06108,-0.91108 1.71801,-1.01187c0.7182,-0.11019 1.42597,0.28006 2.13895,0.42009c0,0 1.19343,0.29836 0.96929,1.47529l1.03183,1.71971l-0.00539,0.00324c0.01013,0.01332 0.02022,0.02668 0.03026,0.04007c1.92003,2.55925 2.48907,5.92111 2.62047,9.30818c0.29095,-0.02012 0.62656,0.07064 0.96216,0.40625zM107.77395,223.34041c-1.13685,0.86794 -3.88154,2.19089 -3.46837,4.06982c0.07798,0.35462 0.38134,0.61853 0.59015,0.91558c1.28794,1.83212 1.48624,0.75256 2.13035,-0.93028c0.4548,-1.18823 0.84135,-2.40532 1.14856,-3.63996l0.24977,-0.9991c-0.27659,0.05822 -0.42036,0.40827 -0.65047,0.58395z" fill="#000000" stroke="none" stroke-width="0.5" stroke-linecap="butt"/><path d="M123.81596,228.93782c0.6654,3.1052 1.32869,6.20631 1.33402,9.34515v1.60133c0,0.71857 -0.58252,1.30108 -1.30108,1.30108c-0.60463,0 -1.11293,-0.41243 -1.25893,-0.97131l-0.39243,-1.37351l0.01373,-0.00392c-0.01088,-0.02232 -0.02153,-0.04478 -0.03194,-0.06739c-0.35081,-0.76123 -0.54776,-4.1342 -0.62661,-4.96799c-0.21472,-2.27068 -1.16569,-5.02218 -1.01033,-7.31309c-0.25791,-1.63308 -0.4652,-3.27299 -0.59292,-4.91943c0,0 -0.09979,-1.29725 1.19746,-1.39704c1.29725,-0.09979 1.39704,1.19746 1.39704,1.19746c0.0186,0.24402 0.0404,0.48781 0.06509,0.73139c0.17269,-0.19979 0.34731,-0.38463 0.51999,-0.55078c0.4602,-0.44278 0.81104,-1.10007 1.42294,-1.28287c2.93585,-0.8771 5.86553,0.97679 4.92395,4.24714c-0.77101,2.6779 -3.68071,2.77672 -5.50583,4.04248l-0.03948,0.23964c0,0 -0.03978,0.05967 -0.11467,0.14165zM123.54219,225.86686c0.99901,-0.41959 1.97495,-0.64327 2.74879,-1.47211c0.65452,-0.70104 1.23232,-2.56412 -0.74318,-1.72375c-0.96208,0.40926 -1.56019,2.0681 -1.89269,2.88577c-0.04156,0.1022 -0.07912,0.20559 -0.11292,0.3101z" fill="#000000" stroke="none" stroke-width="0.5" stroke-linecap="butt"/><path d="M140.98242,236.6008c-0.92001,0.92001 -1.84001,0 -1.84001,0l-0.78141,-1.32034c0,-1.10142 0.27577,-2.22934 0.03481,-3.30408c-0.21138,-0.94282 -0.73063,-1.81628 -0.82958,-2.77742c-0.12783,-1.24159 0.15443,-1.64184 -0.51641,-2.90926c-0.25092,-0.47407 -2.20725,1.32984 -2.29531,1.48283c-0.04034,0.07009 -0.07815,0.13743 -0.11359,0.20231c-0.02745,1.51751 -0.11492,3.03657 -0.28326,4.55728v1.94767c0,0.71857 -0.58252,1.30108 -1.30108,1.30108c-0.67977,0 -1.23778,-0.5213 -1.29606,-1.18594l-0.19874,-1.98735l0.01567,-0.00157c-0.00694,-0.02099 -0.01378,-0.04201 -0.02051,-0.06308c-0.42686,-1.33626 -0.08335,-3.49767 0.48563,-5.04631c0.04769,-4.58405 -0.44724,-9.14882 -0.88172,-13.71083c0,0 -0.12335,-1.29522 1.17187,-1.41858c1.29522,-0.12335 1.41858,1.17187 1.41858,1.17187c0.34523,3.62497 0.72642,7.25725 0.85454,10.8981c1.33776,-0.82552 2.97204,-1.22682 4.0655,-0.18265c1.59734,1.52532 1.33031,2.95089 1.48526,4.69708c0.07503,0.84557 0.59986,1.59561 0.77175,2.42691c0.04702,0.22741 0.03481,3.73115 0.03481,3.90193l0.01925,-0.51967c0,0 0.92001,0.92001 0,1.84001z" fill="#000000" stroke="none" stroke-width="0.5" stroke-linecap="butt"/><path d="M146.43443,236.69273c-0.32769,-0.98307 0.38858,-1.44417 0.69374,-1.59115c0.52024,-3.0737 0.44049,-6.32525 0.44049,-9.42914c0,0 0,-1.30108 1.30108,-1.30108c1.30108,0 1.30108,1.30108 1.30108,1.30108c0,3.52798 0.05645,7.20024 -0.62577,10.66384l-1.46488,1.17932c0,0 -1.23432,0.41144 -1.64576,-0.82288z" fill="#000000" stroke="none" stroke-width="0.5" stroke-linecap="butt"/><path d="M147.56867,214.86344c0,-0.71857 0.58252,-1.30108 1.30108,-1.30108c0.71857,0 1.30108,0.58252 1.30108,1.30108c0,0.71857 -0.58252,1.30108 -1.30108,1.30108c-0.71857,0 -1.30108,-0.58252 -1.30108,-1.30108z" fill="#000000" stroke="none" stroke-width="0.5" stroke-linecap="butt"/><path d="M168.78707,239.3731c0.3075,0.17064 0.59978,0.49503 0.59978,1.1117c0,1.30108 -1.30108,1.30108 -1.30108,1.30108l-1.36389,-0.71922c-1.12071,-2.2422 -2.00475,-4.57184 -3.02743,-6.85845c-0.07238,-0.16183 -0.20074,-0.44237 -0.35915,-0.79115c-0.20981,1.095 -0.41878,2.23396 -0.87789,3.21793c-1.09923,2.35589 -5.16971,4.39314 -7.23697,1.80823c-0.35294,-0.44132 -0.45213,-2.58943 -0.6155,-3.28338c-0.42694,-1.81349 -1.03978,-2.40327 -0.60258,-4.35298c0.61815,-2.75667 3.70193,-5.72629 6.73224,-5.20923c0.15488,0.02643 0.30233,0.07472 0.44495,0.13724c0.23382,-0.22461 0.5514,-0.36267 0.90122,-0.36267c0.40527,0 0.76726,0.18529 1.00588,0.47578l0.99447,1.19337l-0.19357,0.16131l0.44004,0.29704c-0.0253,0.36765 -0.06009,0.73464 -0.10295,1.10084c0.40595,0.65456 0.49277,1.48509 0.79192,2.2029c1.1953,2.86807 2.40175,5.77575 3.77051,8.56966zM161.23508,228.80378c-0.33694,-0.21817 -0.62256,-0.55262 -1.01081,-0.65451c-1.51879,-0.39857 -3.40777,1.96997 -3.67643,3.19778c-0.27047,1.23609 0.31873,2.06401 0.59842,3.25336c0.17769,0.75561 -0.07565,1.5902 0.18517,2.32129c0.1301,0.36467 0.7942,0.04968 1.15873,-0.08081c0.92124,-0.32976 1.26403,-0.42727 1.61264,-1.31363c0.76073,-1.93424 1.14975,-4.16441 1.53849,-6.25537l-0.1288,-0.35419c-0.16893,-0.05194 -0.2774,-0.11393 -0.2774,-0.11393z" fill="#000000" stroke="none" stroke-width="0.5" stroke-linecap="butt"/></g></g></svg>