<svg version="1.1" xmlns="http://www.w3.org/2000/svg" xmlns:xlink="http://www.w3.org/1999/xlink" width="449.84417" height="163.34556" viewBox="0,0,449.84417,163.34556"><g transform="translate(-2.86568,-3.6019)"><g data-paper-data="{&quot;isPaintingLayer&quot;:true}" fill="#ff0000" fill-rule="nonzero" stroke="none" stroke-width="0.5" stroke-linecap="butt" stroke-linejoin="miter" stroke-miterlimit="10" stroke-dasharray="" stroke-dashoffset="0" style="mix-blend-mode: normal"><path d="M34.32555,17.09073c-4.5013,0.3659 -8.66934,1.96128 -12.85533,3.98424c-2.29231,1.1078 -3.58238,3.68598 -5.73711,5.0421c-1.57769,0.99295 -5.01282,0.90496 -5.64037,3.45571c-0.68675,2.79135 0.1807,7.40743 0.1807,10.33056c0,4.5125 0.4282,8.4229 0.86318,12.85773c0.27141,2.76721 -0.67134,5.62486 -0.07706,8.3411c0.51379,2.34834 2.23298,4.25812 3.30643,6.40903c3.37159,8.47272 7.54112,12.24027 15.37856,16.48925c0.49726,0.26958 5.08884,3.36219 6.10419,3.56392c6.42167,1.27589 13.85372,0.88568 20.39323,1.33789c5.98671,0.41398 11.94399,1.39895 17.00768,-2.47681c8.94087,-6.84336 10.20038,-17.63037 12.75717,-27.58543c0.07659,-5.39886 1.96622,-7.9976 3.66568,-12.97754c1.38821,-4.06788 1.62096,-10.85945 0.77305,-14.97668c-0.29003,-1.40829 -1.23736,-2.60773 -1.65336,-3.98408c-0.23311,-0.77126 0.3123,-1.85139 -0.27659,-2.40129c-2.17784,-2.03365 -5.68231,-2.02811 -8.11533,-3.74832c-3.28423,-2.32204 -5.75534,-5.11647 -9.72654,-6.59657c-3.39783,-1.2664 -6.81122,-0.81323 -10.1511,-1.6361c-1.27419,-0.31393 -2.26146,-1.39315 -3.52126,-1.76063c-3.19894,-0.93313 -6.98604,1.96652 -9.28753,3.34741c-2.34898,0.59874 -4.65357,1.44034 -6.81528,2.53723l-3.10218,1.07136c0,0 -2.04744,0.68248 -3.47082,-0.62407zM37.99591,10.22332c2.24761,-1.09498 4.59592,-2.02957 7.02286,-2.62354c4.22604,-2.53563 8.40225,-4.84279 13.60062,-3.6951c1.28144,0.28291 2.24936,1.43752 3.52126,1.76063c3.51407,0.89269 7.35258,0.51968 10.97643,1.88515c4.54089,1.71102 7.64862,4.77517 11.40099,7.48845c2.90458,2.10026 7.00235,2.47517 9.49095,5.05481c1.12769,1.16895 0.94159,3.11024 1.48404,4.64122c0.57537,1.62388 1.53757,3.12822 1.8679,4.81905c1.03184,5.28175 0.69878,13.32136 -0.98758,18.47524c-1.58798,4.85321 -3.4625,6.5894 -3.37683,11.67125c-2.86066,11.72105 -4.80527,24.43166 -15.41287,32.2759c-6.783,5.01598 -13.81478,4.50276 -21.82626,3.95168c-6.92598,-0.47641 -14.99703,-0.05708 -21.7617,-1.56935c-2.53321,-0.56631 -5.45976,-2.98925 -7.7072,-4.22209c-2.17235,-1.19165 -4.55859,-2.00132 -6.62991,-3.36101c-5.75976,-3.78091 -9.24244,-10.22289 -11.71708,-16.37942c-0.43586,-0.86997 -3.62337,-7.17399 -3.73608,-7.67599c-0.44035,-1.9613 0.14877,-7.05285 -0.07706,-9.26518c-0.47249,-4.62878 -0.89745,-8.84433 -0.89745,-13.55168c0,-3.32682 -0.93153,-9.59248 0.1807,-12.5576c0.75698,-2.01804 2.19061,-3.81465 3.83956,-5.20262c1.27094,-1.06978 3.19346,-1.02963 4.60508,-1.90544c2.43463,-1.5105 4.03725,-4.21539 6.58728,-5.52167c5.74795,-2.94446 11.82609,-4.65669 18.2393,-4.74335c0,0 0.60478,0 1.31307,0.25064z"/><path d="M70.12498,77.75c0,-1.38071 1.11929,-2.5 2.5,-2.5c1.38071,0 2.5,1.11929 2.5,2.5c0,1.38071 -1.11929,2.5 -2.5,2.5c-1.38071,0 -2.5,-1.11929 -2.5,-2.5z"/><path d="M30.56159,64.6011c2.31118,0 2.48573,2.13662 2.49892,2.45937c1.19248,1.18286 2.44912,2.43465 3.44859,3.72309c0.55709,0.71816 0.78851,1.71052 1.49841,2.27811c0.50624,0.40475 1.28229,0.22418 1.89515,0.43516c1.72877,0.59513 3.39541,1.37019 5.14472,1.90192c3.61679,0.34744 6.4264,-0.16496 9.93051,-0.97856c0.79834,-0.18537 2.97247,-0.13373 3.65366,-1.15811c1.4976,-2.25208 2.52907,-5.28669 3.27974,-7.85995c0.71587,-2.45401 2.39264,-8.60856 -0.04453,-10.71322c-0.86601,-0.74786 -2.89664,-1.19572 -3.84025,-1.39574c-4.95739,-1.05087 -10.07961,-0.69012 -15.11102,-0.69423c-2.85013,0.16499 -5.8768,1.01881 -7.83996,-2.3798c-0.72095,-1.24811 0.11998,-2.8824 0.27639,-4.31525c0.53505,-4.90149 -0.08658,-10.74359 0.99543,-15.47406c0.4636,-2.02683 0.71666,-4.39048 2.2165,-5.83042c0.99513,-0.95538 5.52166,-0.42015 7.04897,-0.2301c4.14247,0.51548 8.3446,1.09933 12.52221,1.23287c3.31766,0.10605 5.92999,-0.07897 9.14494,0.85436c0,0 2.39456,0.71837 1.67619,3.11294c-0.71837,2.39457 -3.11293,1.6762 -3.11293,1.6762c-5.25679,-1.64485 -11.69741,-0.94023 -17.20885,-1.40085c-1.99106,-0.16641 -3.99257,-0.33327 -5.94731,-0.74681c-0.40167,-0.08498 -0.90422,-0.83959 -1.12772,-0.49521c-0.48718,0.75063 -0.22049,1.77693 -0.28349,2.66958c-0.29707,4.2088 0.10184,8.49713 -0.48863,12.677c-0.19675,1.39279 -1.25633,2.62718 -1.23956,4.0337c0.00295,0.24725 0.4912,-0.05735 0.7367,-0.08685c0.80785,-0.0971 1.61555,-0.1953 2.42333,-0.29295c5.45371,-0.00413 11.02199,-0.38424 16.38898,0.80578c1.99129,0.44152 4.61951,1.1181 6.15975,2.60425c5.76359,5.56116 1.80439,16.27258 -1.22822,21.99394c-0.58714,1.1077 -0.72781,2.47494 -1.53657,3.43288c-2.20488,2.61155 -3.48953,2.14712 -6.34633,2.84189c-4.22271,1.02695 -7.72142,1.46905 -12.0695,1.02144c-2.45478,-0.72912 -6.94429,-1.62158 -8.96013,-3.1629c-2.17645,-1.66412 -4.28076,-5.23219 -6.32184,-7.27168l-0.73223,-2.76776c0,0 0,-2.5 2.5,-2.5z"/><path d="M158.61757,23.84533c2.18778,0.43756 1.75022,2.62533 1.75022,2.62533l-0.44563,2.17276c-0.02536,4.92213 -1.9802,8.70344 -3.43546,13.34808c-0.98633,3.14798 -0.78949,7.70688 -2.39903,10.54511c-0.02514,0.04434 -0.05082,0.08831 -0.07698,0.13192l0.02563,0.01025l-0.93689,2.34221c-0.31639,0.84736 -1.13315,1.45075 -2.09083,1.45075c-1.2322,0 -2.2311,-0.9989 -2.2311,-2.2311v-2.22378c-1.12076,-5.46037 -3.80947,-10.47545 -4.60556,-15.99184c-0.13489,-0.93473 -0.5648,-2.3415 -0.74886,-3.68569c-0.67833,1.6094 -0.34033,3.51243 -0.76426,5.2156c-0.92718,3.72509 -2.18439,7.09985 -3.4038,10.71411c-0.40559,1.20215 -0.29039,2.65908 -1.08479,3.64833c-0.09213,0.11473 -0.18817,0.22542 -0.28766,0.33253l0.04731,0.03784l-1.8995,2.37438c-0.40849,0.51967 -1.0428,0.85344 -1.75507,0.85344c-1.2322,0 -2.2311,-0.9989 -2.2311,-2.2311v-2.86856c0.00578,-4.64695 -1.14442,-8.59266 -1.89081,-13.07717c-0.65045,-3.90807 -1.10198,-7.88105 -1.89062,-11.82424c0,0 -0.43755,-2.18778 1.75023,-2.62533c2.18778,-0.43756 2.62533,1.75022 2.62533,1.75022c0.80475,4.02375 1.26854,8.09288 1.93414,12.08044c0.44364,2.65782 1.00742,5.16136 1.41164,7.71794c0.01493,-0.03645 0.02974,-0.07295 0.04442,-0.1095c1.27831,-3.18403 2.1402,-6.6808 2.74101,-10.06613c0.22883,-1.28936 0.09184,-2.68633 0.63845,-3.8763c0.59334,-1.29169 1.77379,-2.2211 2.66525,-3.32883l1.39776,-1.86368c0.40599,-0.55371 1.06124,-0.91321 1.80046,-0.91321c1.0967,0 2.00859,0.79129 2.19588,1.83408l0.46999,2.34994l-0.03898,0.0078c0.02474,0.06959 0.04858,0.13955 0.07145,0.20991c0.83903,2.58104 0.12751,5.98661 0.89137,8.72747c0.66234,2.37662 1.50787,4.69718 2.30948,7.03323c0.01453,-0.07652 0.02995,-0.15288 0.04637,-0.22906c1.19188,-5.52984 4.29641,-10.32904 4.26464,-16.00973l0.51056,-2.60817c0,0 0.43756,-2.18778 2.62534,-1.75022z"/><path d="M177.63851,58.20873c-1.57763,-1.57763 0,-3.15525 0,-3.15525l0.31636,0.37506c0.26405,-2.359 1.04556,-5.97915 0.16625,-8.43778c-1.04537,-2.92295 -5.50894,-1.47164 -7.27837,0.55002c-0.21926,1.61126 -0.36821,3.204 -0.73381,4.88436c0.06229,0.80641 0.07731,1.60581 -0.13594,2.36347v2.3206c0,1.2322 -0.9989,2.2311 -2.2311,2.2311c-1.2322,0 -2.2311,-0.9989 -2.2311,-2.2311v-2.46777c-0.5657,-1.40071 0.17478,-3.01772 0.30176,-4.52343c0.09839,-1.16677 -0.13024,-2.43664 0.37572,-3.4926c0.11272,-0.23524 0.24419,-0.4611 0.39181,-0.67807c0.11171,-0.73607 0.24433,-1.48084 0.42122,-2.24441c0.91361,-3.94359 2.72367,-7.99342 3.31648,-11.96747c0.576,-3.86136 0.30858,-7.88511 0.96049,-11.80627c0,0 0.36679,-2.20074 2.56754,-1.83395c2.20075,0.36679 1.83395,2.56754 1.83395,2.56754c-0.6515,3.8989 -0.36879,7.89084 -0.94922,11.73516c-0.48588,3.21807 -1.70713,6.49267 -2.67417,9.71559c0.34383,-0.15197 0.67553,-0.29354 0.98676,-0.42625c1.12407,-0.47933 2.26924,-1.28944 3.48266,-1.14486c4.26169,0.50778 5.97842,4.71928 6.34814,8.25517c0.22768,2.17742 -0.26224,5.11262 -0.48414,7.12372l-1.59602,2.28743c0,0 -1.57763,1.57763 -3.15526,0z"/><path d="M209.35359,62.0579c0.42567,0.32178 0.77928,0.85639 0.77928,1.74461c0,2.2311 -2.2311,2.2311 -2.2311,2.2311l-2.66587,-1.79355c-0.30331,-1.52272 -0.71912,-3.91467 -1.29313,-5.28634c-0.93368,-2.23115 -2.78361,-3.98543 -3.80756,-6.17662c-0.57896,-1.23894 -0.72003,-2.64404 -1.21848,-3.91751c-0.14641,-0.37406 -0.33623,-0.73302 -0.53912,-1.08695c-0.21793,0.99014 -0.46293,1.96426 -0.79593,2.88922c-1.31579,3.65483 -5.28356,13.60115 -10.98412,7.88946c-0.65115,-0.65242 -0.52873,-6.82629 -0.52873,-8.13544c0,-0.96555 -0.01232,-5.9718 0.05968,-6.24973c1.41166,-5.44879 6.66713,-7.78298 11.69276,-6.9342c0,0 1.92658,0.38532 1.80232,2.2407l1.51793,3.64304c1.51007,2.35104 1.87522,5.27334 3.05257,7.80754c0.37507,0.80732 3.34503,5.06466 3.84194,6.25381c0.616,1.47415 0.98956,3.22298 1.31758,4.88086zM190.47133,45.19136c-0.49505,2.67861 0.33353,5.85147 0.05969,8.57118c-0.066,0.65554 -0.46848,1.24844 -0.52873,1.90453c-0.05992,0.65249 0.88122,-0.99639 1.15087,-1.59357c0.32105,-0.711 0.5259,-1.47087 0.84857,-2.18114c0.70262,-1.54659 1.4322,-3.11579 1.7599,-4.7826c0.33958,-1.72725 0.82259,-3.42841 1.39096,-5.09465v-0.54905c-2.10095,0.16385 -4.25611,1.4249 -4.68126,3.72529z"/><path d="M237.38421,40.37592c0,2.2311 -2.2311,2.2311 -2.2311,2.2311l-1.3067,-0.15958c-1.47933,-0.60329 -2.69469,-1.7564 -4.17977,-2.34539c-1.61706,-0.64134 -3.40145,0.7358 -5.11504,1.0355c-0.34162,0.05975 -0.67901,0.11398 -1.01265,0.16268c-0.19349,1.35521 -0.36922,2.70954 -0.50713,4.0631c-0.29419,2.8874 0.02869,5.59876 -0.54326,8.49376l-0.07215,0.12209l0.0324,0.0108l-1.39481,4.18441c-0.28038,0.91168 -1.12924,1.57437 -2.13288,1.57437c-0.94271,0 -1.74886,-0.58467 -2.07562,-1.41118l-0.95934,-2.27332c0,0 -0.86745,-2.05557 1.18812,-2.92301c0.38192,-0.16117 0.72282,-0.22143 1.02476,-0.21273l0.08376,-0.25128c0.52426,-2.61702 0.14757,-5.09929 0.40595,-7.72688c0.10912,-1.1097 0.24704,-2.22049 0.40128,-3.33224c-2.81009,-0.03784 -5.50299,-0.53913 -8.44717,-1.51607c0,0 -2.11661,-0.70553 -1.41107,-2.82215c0.70554,-2.11661 2.82215,-1.41108 2.82215,-1.41108c2.72798,0.91386 5.12829,1.34272 7.71031,1.29923c0.65913,-4.18144 1.31408,-8.37369 1.3054,-12.56925c0,0 0,-2.2311 2.2311,-2.2311c2.2311,0 2.2311,2.2311 2.2311,2.2311c-0.00747,4.02788 -0.57623,8.0443 -1.19,12.052c2.32542,-0.50324 4.36005,-1.52608 6.83584,-0.78198c1.61267,0.48469 2.8572,1.82337 4.42592,2.43555l-0.35052,-0.15957c0,0 2.2311,0 2.2311,2.2311z"/><path d="M265.7511,69.38027c-2.2311,0 -2.2311,-2.2311 -2.2311,-2.2311v-1.43428c0.05661,-0.83095 0.42965,-1.70153 0.16984,-2.49285c-0.59382,-1.8086 -3.09687,-2.25857 -4.37921,-3.66542c-1.18,-1.29458 -3.22486,-5.5231 -5.68984,-5.49562c-1.2063,0.01344 -1.49716,1.80509 -2.06281,2.96318c-0.24924,3.39983 -0.65776,6.7698 -1.30856,10.08446l-0.46999,2.34994c-0.18729,1.04279 -1.09918,1.83407 -2.19588,1.83407c-1.2322,0 -2.2311,-0.9989 -2.2311,-2.2311v-2.39047h0.42292c-0.88112,-3.71826 -0.6197,-7.2938 1.45785,-11.05924c0.57468,-8.86635 0.0316,-17.96704 0.0316,-26.71016c0,0 0,-2.2311 2.2311,-2.2311c2.2311,0 2.2311,2.2311 2.2311,2.2311c0,6.91845 0.28795,14.00526 0.14687,21.04046c0.35624,-0.1535 0.73739,-0.25864 1.14666,-0.30278c4.73791,-0.51106 7.14354,4.21505 9.60916,6.93482c1.19007,1.31274 4.494,3.13792 5.18267,4.94027c0.50016,1.309 0.11322,2.8003 0.16983,4.20046v1.43428c0,0 0,2.2311 -2.2311,2.2311z"/><path d="M288.7412,77.27232c-1.99556,0.99778 -2.99334,-0.99778 -2.99334,-0.99778l-0.68328,-1.58718c-0.70985,-4.26174 -1.43397,-8.57364 -2.47407,-12.7739c-0.29715,0.74939 -0.65946,1.46684 -1.09534,2.13532c-2.64536,4.05692 -7.7802,5.49824 -10.15583,0.12944c-2.14537,-4.84841 -0.38255,-10.68525 4.41651,-12.8925c1.16774,-0.53708 2.39603,-1.30267 3.67443,-1.1693c0.4411,0.04601 0.83218,0.23679 1.20179,0.48967c0.40065,-0.59536 1.08075,-0.98703 1.85233,-0.98703c1.2322,0 2.2311,0.9989 2.2311,2.2311v2.39047h-0.05299c2.3272,6.38132 3.66606,12.89221 4.80357,19.71314l0.27291,0.3252c0,0 0.99778,1.99556 -0.99778,2.99334zM279.31909,55.17089c-2.04041,-1.56737 -4.35914,2.41492 -4.17109,4.64871c0.09758,1.15905 -0.31609,2.82884 0.68467,3.42163c1.08787,0.64438 1.6539,-1.14739 1.90382,-1.59737c1.0773,-1.93965 1.56602,-4.24668 1.58261,-6.47298z"/><path d="M300.30524,63.63862c0.10002,3.87913 0.18735,7.75664 0.18735,11.63814v2.86856c0,1.2322 -0.9989,2.2311 -2.2311,2.2311c-0.89066,0 -1.65943,-0.5219 -2.01718,-1.27656l-1.41266,-2.82533l0.05223,-0.02611c-0.06144,-0.09241 -0.12097,-0.18627 -0.17841,-0.28171c-0.73957,-1.22896 -0.58826,-5.04009 -0.58746,-6.42708c0.00187,-3.25323 0.86757,-6.21016 1.63673,-9.27284c-0.10616,-4.07493 -0.20245,-8.1534 -0.20245,-12.24138c0,0 0,-2.2311 2.2311,-2.2311c1.86063,0 2.16959,1.55167 2.22089,2.06698c0.48294,-0.2449 1.04512,-0.44714 1.70117,-0.59997c7.45499,-1.73664 11.33569,11.08615 6.50528,15.45382c-1.59432,1.4416 -4.27505,0.4956 -6.38274,0.91714zM300.57463,59.18773l0.81366,0.00407c0.79682,-0.15936 1.5779,-0.47042 2.39047,-0.47809c0.59972,-0.00566 1.27251,0.80864 1.74485,0.43905c0.49277,-0.38557 0.07228,-1.24948 0.09021,-1.87492c0.05882,-2.05264 0.26281,-2.61353 -0.97893,-4.52712c-0.32696,-0.50387 -2.63062,-1.88281 -3.08043,-0.62261c-0.6539,1.83196 -0.34252,3.88148 -0.70222,5.7931c-0.07895,0.41956 -0.1731,0.84196 -0.2776,1.26652z"/><path d="M323.32388,64.25754c-0.84345,4.14355 -1.77688,8.26056 -3.33865,12.19198l-0.91929,3.21751c-0.25036,0.95837 -1.12199,1.6656 -2.15881,1.6656c-1.03682,0 -1.90846,-0.70723 -2.15881,-1.6656l-0.94264,-3.29923l0.04419,-0.01263c-0.038,-0.09608 -0.0742,-0.19301 -0.10847,-0.29085c-1.23895,-3.53676 1.00603,-8.62588 1.95701,-11.86128c1.10471,-3.75841 1.30773,-7.19859 3.7478,-10.37259c0.64947,-0.84483 1.41626,-1.80839 2.27935,-2.73803c0.22147,-0.78455 0.45833,-1.56437 0.71445,-2.33825c0,0 0.70553,-2.11661 2.82215,-1.41107c0.30829,0.10276 0.55672,0.23547 0.75617,0.3872c1.37472,-0.63986 2.85275,-0.87997 4.39288,-0.42074c5.81797,1.73475 5.71531,8.00939 3.86644,12.54063c-1.0295,2.52311 -1.30348,4.2634 -4.44655,5.17197c-1.00358,0.29011 -2.06924,-0.28912 -3.10385,-0.43368l-2.17062,0.01086c0,0 -0.63878,0 -1.23275,-0.3418zM325.80441,53.01492c-0.65362,2.36013 -1.17235,4.76012 -1.66191,7.16875c0.24506,-0.04654 0.41413,-0.04655 0.41413,-0.04655l2.61032,0.01086c0.55903,0.17417 1.09203,0.54606 1.67709,0.52251c0.93042,-0.03746 0.95369,-1.60943 1.29057,-2.47753c0.67749,-1.74581 1.60003,-4.07241 0.33117,-5.90292c-0.30754,-0.44368 -1.73806,-0.98097 -2.33505,-0.71373c-0.86019,0.38506 -1.63166,0.87106 -2.32632,1.43861z"/><path d="M355.40675,67.08614c0.54112,2.16449 -1.62336,2.70561 -1.62336,2.70561l-2.4535,0.54471c-1.83354,-0.00645 -3.65329,-0.31829 -5.47888,-0.48895c-3.01446,-0.2818 -5.01981,0.82426 -6.95899,-2.5178c-0.73535,-1.26733 -0.62735,-2.86838 -0.78377,-4.32523c-0.49024,-4.56578 -0.27568,-9.65212 1.57936,-13.87274c0.71705,-1.63144 0.70056,-3.96145 2.24387,-4.8525c6.33784,-3.65924 6.12727,1.49621 6.37049,4.70236c0.25053,3.30243 -0.1021,5.48139 -2.56585,8.27094c-0.8125,0.91994 -2.13065,1.20179 -3.24097,1.7459c-0.11799,2.03607 -0.29567,4.33237 0.2365,6.0578c0.35134,1.13916 2.36999,0.26597 3.55907,0.35077c1.68266,0.11998 3.35227,0.47415 5.03918,0.46724l1.37125,-0.41148c0,0 2.16449,-0.54112 2.70561,1.62336zM343.81852,50.84211c-0.32293,1.05877 -0.60919,1.91611 -0.82636,2.76862c0.70344,-0.95245 0.79394,-1.85855 0.82636,-2.76862z"/><path d="M384.31835,74.16121c-2.2311,0 -2.2311,-2.2311 -2.2311,-2.2311l0.15958,-1.30671c1.44985,-3.17661 0.26261,-7.74355 -0.57188,-11.06401c-0.58096,-2.31166 -0.1056,-2.76137 -1.21397,-4.70377c-0.42816,-0.75034 -1.1926,-1.29783 -1.52607,-2.09478c-0.23522,-0.56215 0.14234,-1.27171 -0.11392,-1.82459c-0.1219,-0.26301 -0.57366,-0.34816 -0.83857,-0.23044c-1.09536,0.48677 -1.81846,1.56219 -2.72031,2.35177c-3.63556,3.18298 -5.45911,5.70005 -5.44609,10.719c0.00623,2.4044 1.04845,4.86153 0.47825,7.19735v2.39047c0,1.2322 -0.9989,2.2311 -2.2311,2.2311c-1.2322,0 -2.2311,-0.9989 -2.2311,-2.2311v-2.22338c-0.02116,-0.1021 -0.04311,-0.20409 -0.06582,-0.30597c-0.10399,-0.24194 -0.15922,-0.49507 -0.18191,-0.7559c-0.76107,-2.95611 -2.05094,-5.83706 -2.59203,-8.7878c-0.79541,-4.33767 -0.02881,-9.79594 -0.02881,-14.2221c0,0 0,-2.2311 2.2311,-2.2311c2.2311,0 2.2311,2.2311 2.2311,2.2311c0,2.42172 -0.2724,5.24354 -0.34515,7.97987c1.61721,-2.6639 5.04279,-5.35044 7.29345,-6.8962c0.94395,-0.6483 1.74879,-1.82675 2.89366,-1.85169c1.72601,-0.0376 3.55567,0.59695 4.89855,1.68193c0.79703,0.64396 0.40931,2.02765 0.84227,2.95635c0.30842,0.66156 0.99442,1.08838 1.34249,1.72997c1.3045,2.40453 2.17678,6.19173 2.64777,8.86328c0.59886,3.3968 0.5367,7.6261 -0.60886,10.74787l0.15958,-0.35052c0,0 0,2.2311 -2.2311,2.2311z"/><path d="M409.75802,69.13817c0.31274,-0.46638 0.85868,-0.87345 1.81167,-0.87345c2.2311,0 2.2311,2.2311 2.2311,2.2311l-1.68695,2.64182c-2.75575,0.69186 -5.48094,1.50952 -8.17821,2.40257c-1.63031,0.15288 -3.2788,0.74554 -4.89094,0.45862c-1.06009,-0.18867 -1.80198,-1.18021 -2.67839,-1.80576c-4.13939,-2.95455 -4.66452,-6.51116 -6.05181,-11.16546c-0.81395,-2.7308 -2.00645,-4.33813 -0.17039,-7.20365c0.58713,-0.91632 1.90904,-1.08006 2.71995,-1.80587c1.33215,-1.19234 2.56261,-2.52271 4.04531,-3.52165c1.05765,-0.71257 1.84047,-2.05158 3.10182,-2.23964c6.04642,-0.90145 8.26632,5.73551 4.62708,9.84897c-2.34655,2.65232 -7.24551,2.28184 -10.51543,2.60218c0.17986,0.34769 0.35525,0.68955 0.45454,1.00087c1.24368,3.89977 1.2861,6.33199 4.46626,8.91448c0.4045,0.32848 0.63066,0.98815 1.14636,1.0628c0.92472,0.13385 1.83904,-0.33171 2.75856,-0.49756c2.24699,-0.75435 4.51824,-1.44189 6.80946,-2.05039zM396.69655,56.17406c1.91791,-0.11335 3.97796,-0.36254 4.5932,-1.01764c0.45702,-0.48664 0.25416,-1.31099 0.40117,-1.9622c0.05323,-0.23582 0.36056,-0.51736 0.1992,-0.69739c-0.65574,-0.73163 -1.6432,1.07932 -2.43334,1.66323c-0.67256,0.49702 -1.5421,0.70682 -2.16991,1.25928c-0.24011,0.2113 -0.42079,0.47788 -0.59031,0.75471z"/><path d="M427.85562,68.85687c-0.55911,0.3101 -0.67907,1.09727 -1.13259,1.54792c-0.06953,0.06909 -2.28089,1.52631 -2.46769,2.05387c-0.49881,1.40881 1.56685,1.99034 2.49588,1.62414c0.59227,-0.23346 1.0821,-0.66543 1.60327,-1.03666l-0.72395,-3.61975l0.15785,-0.03157c0.09478,-0.31901 0.25456,-0.64186 0.06722,-0.53795zM433.40264,74.79867c0,2.2311 -2.2311,2.2311 -2.2311,2.2311l-0.28638,-0.31795c-2.36908,1.34544 -3.52056,2.64005 -6.52439,1.67128c-5.05928,-1.63169 -5.71359,-6.32286 -2.41635,-9.943c1.59561,-1.75187 4.27379,-3.8963 6.51793,-3.86488c0,-5.83533 0,-11.67066 0,-17.50599c0,0 0,-2.2311 2.2311,-2.2311c2.2311,0 2.2311,2.2311 2.2311,2.2311c0,7.96823 0,15.93646 0,23.90469v2.36339c0.27912,0.32775 0.47809,0.79507 0.47809,1.46136z"/><path d="M156.10827,84.36054c0,2.2311 -2.2311,2.2311 -2.2311,2.2311l-2.61032,-0.01086c-1.40345,-0.27473 -2.78498,-0.50433 -4.15079,-0.65109c-0.00067,0.98003 -0.0305,1.9483 -0.09765,2.89815c-0.13578,1.92075 -0.47962,3.83114 -0.47962,5.75668l-0.50085,3.05133c0,0 -0.36679,2.20074 -2.56754,1.83395c-2.20075,-0.36679 -1.83395,-2.56754 -1.83395,-2.56754l0.45534,-2.68579c0,-2.81588 0.03923,-5.6008 0.04407,-8.38213c-2.01993,0.17245 -4.0213,0.64008 -6.02548,1.53308c0,0 -2.05071,0.87888 -2.92958,-1.17183c-0.87888,-2.05071 1.17183,-2.92958 1.17183,-2.92958c2.59712,-1.07897 5.16069,-1.66609 7.75072,-1.87018c-0.05469,-2.89973 -0.18907,-5.81133 -0.48619,-8.76564c0,0 -0.222,-2.22003 1.99803,-2.44203c2.22003,-0.222 2.44203,1.99803 2.44203,1.99803c0.29459,2.96203 0.67497,6.11155 0.89039,9.24427c1.56011,0.13422 3.14232,0.37827 4.75893,0.70983l2.17062,-0.01086c0,0 2.2311,0 2.2311,2.2311z"/><path d="M172.061,89.91548c-0.66301,-0.17786 -1.11581,-0.63065 -1.11581,-0.63065c-0.23071,-0.42924 -0.205,-1.27442 -0.69213,-1.28771c-0.64931,-0.01771 -0.95876,0.88948 -1.5134,1.22755c-0.85582,0.52165 -1.82854,0.83008 -2.69338,1.33661c-3.34977,1.96193 -5.63198,5.17563 -4.73866,9.06376c0.20117,0.87559 0.86111,1.57761 1.25842,2.38339c0.38105,0.77279 0.57581,1.64865 1.07574,2.35042c1.516,2.12809 4.9675,-1.3407 5.83514,-1.83805c1.89431,-1.08585 3.31283,-1.14253 4.51671,-3.11295c1.40154,-2.29395 1.02642,-4.2331 1.19352,-6.69226c-0.74499,-0.86563 -1.6477,-1.59198 -2.56871,-2.26731zM173.91536,85.97034c0.67686,0.1729 1.14129,0.63733 1.14129,0.63733l0.23913,0.27084c1.60324,1.22331 2.95858,2.78062 4.12461,4.426c0.14352,3.88082 0.53774,6.93951 -1.67504,10.51911c-1.88502,3.04938 -3.29236,2.99725 -6.08297,4.58756c-2.12579,1.21144 -4.75777,3.70044 -7.64793,3.09623c-3.64889,-0.76283 -6.28073,-5.53568 -7.04966,-8.85717c-0.05966,-0.25772 -0.14105,-6.51722 0.11015,-7.10354c0.45144,-1.05368 1.5648,-1.6765 2.31119,-2.54654c2.33558,-2.72251 3.99391,-4.29786 7.35799,-5.76662c1.38426,-0.60437 2.72437,-1.82364 4.22373,-1.64102c1.25378,0.15271 1.99574,1.51273 2.94752,2.37781z"/><path d="M212.52333,94.8786c0,2.2311 -2.2311,2.2311 -2.2311,2.2311h-1.43428c-3.52751,0 -6.90975,-0.12804 -10.13647,0.26978c0.53206,5.52083 0.89332,11.05377 0.89332,16.62286l-0.71364,1.95397c0,0 -0.99778,1.99556 -2.99334,0.99778c-1.99556,-0.99778 -0.99778,-2.99334 -0.99778,-2.99334l0.24255,0.04159c0,-5.24687 -0.3235,-10.46296 -0.81195,-15.66721c-1.93156,0.64267 -3.80012,1.61114 -5.60315,3.06659c0,0 -1.7422,1.39376 -3.13596,-0.34844c-1.39376,-1.7422 0.34844,-3.13596 0.34844,-3.13596c2.56968,-2.03992 5.20408,-3.2919 7.9332,-4.0597c-0.3371,-3.07439 -0.71597,-6.14654 -1.10382,-9.22036c0,0 -0.27673,-2.21388 1.93714,-2.49061c2.21388,-0.27673 2.49061,1.93714 2.49061,1.93714c0.36853,2.97436 0.7319,5.94663 1.06026,8.92058c3.35871,-0.40594 6.8723,-0.35689 10.59059,-0.35689h1.43428c0,0 2.2311,0 2.2311,2.2311z"/><path d="M232.72104,118.38838c-1.99556,-0.99778 -0.99778,-2.99334 -0.99778,-2.99334l0.72064,-0.9146c0,-1.67973 0.16171,-3.36624 0.01086,-5.03918c-0.13938,-1.54566 -0.63046,-3.03927 -0.92372,-4.56323c-0.21284,-1.10603 0.20854,-2.8267 -0.82386,-3.27698c-1.45245,-0.63349 -2.32166,0.37587 -3.17604,1.17827c-2.15178,2.02087 -2.63552,3.5605 -3.67921,6.2788c-0.44277,1.1532 -0.75911,2.38845 -1.45804,3.40695l-0.92705,2.31764c-0.31639,0.84736 -1.13315,1.45074 -2.09083,1.45074c-1.2322,0 -2.2311,-0.9989 -2.2311,-2.2311v-2.86856h0.17642l-0.13616,-0.42192c1.58179,-3.95448 0.74117,-7.68544 0.44544,-11.8245c-0.38192,-5.34523 -0.96379,-10.58545 -0.96379,-15.96112c0,0 0,-2.2311 2.2311,-2.2311c2.2311,0 2.2311,2.2311 2.2311,2.2311c0,5.2519 0.57537,10.36644 0.94859,15.59307c0.07533,1.05493 0.18213,2.09719 0.27901,3.13034c1.22445,-1.98981 2.81705,-3.67848 4.91954,-4.10674c1.83965,-0.37472 3.92406,-0.60976 5.62955,0.17511c1.29466,0.5958 1.80194,2.24136 2.41602,3.52745c1.8047,3.77965 1.58438,9.18843 1.58438,13.23496l-1.19173,2.91016c0,0 -0.99778,1.99556 -2.99334,0.99778z"/><path d="M267.50411,122.60804c0,2.2311 -2.2311,2.2311 -2.2311,2.2311h-1.91237c-7.0399,0 -14.50297,0.12478 -19.15637,-5.91897c-2.30742,-5.6939 -6.82711,-12.41533 -4.97131,-18.95099c1.00187,-3.52835 5.20431,-5.77272 7.92283,-7.79678c0.9126,-0.67947 1.71971,-1.79152 2.85468,-1.87123c1.8782,-0.13191 3.80167,0.47267 5.50051,1.28445c0.84917,0.40577 1.12892,1.51174 1.77778,2.19344c0.75386,0.792 2.12163,1.16339 2.41891,2.21562c0.38799,1.37327 0.03067,2.95704 -0.59515,4.23952c-1.80354,3.69596 -8.02094,6.13718 -11.37823,8.05578c0,0 -1.93714,1.10694 -3.04408,-0.8302c-1.10694,-1.93714 0.8302,-3.04408 0.8302,-3.04408c2.53568,-1.44885 5.50818,-2.84151 7.86148,-4.60236c0.65729,-0.49182 1.22509,-1.09517 1.79641,-1.68466c0.15096,-0.15577 0.50386,-0.37815 0.36103,-0.54142c-0.34019,-0.38889 -1.02463,-0.30416 -1.40584,-0.65294c-1.38434,-1.26658 -0.60125,-2.57173 -3.23977,-2.25923c-0.46055,0.05454 -0.62182,0.69106 -0.97007,0.99733c-0.9634,0.84726 -1.92085,1.70779 -2.96056,2.45944c-1.37875,0.99677 -3.01407,1.13031 -3.45942,3.1304c-1.17888,5.29446 2.76658,10.84577 4.59056,15.47176c3.10451,4.36696 10.53879,3.64291 15.26638,3.64291h1.91237c0,0 2.2311,0 2.2311,2.2311z"/><path d="M310.25541,100.05445c1.99556,0.99778 0.99778,2.99334 0.99778,2.99334l-0.68877,1.29707c-3.03622,3.89455 -3.29425,10.66141 -4.38907,15.406c-0.50662,2.19551 -0.2452,4.74242 -1.54976,6.57955c-0.08386,0.11809 -0.17062,0.23369 -0.25997,0.34706l0.05509,0.03672l-1.89318,2.83977c-0.39726,0.61512 -1.08887,1.0223 -1.87559,1.0223c-1.06179,0 -1.95034,-0.7417 -2.17581,-1.73526l-0.81881,-3.27524c-0.44804,-1.7927 -1.34146,-5.56577 -1.98509,-7.49504c-0.54841,-1.64383 -1.27303,-3.11161 -1.8136,-4.55932c-0.6479,2.86695 -1.43853,5.78697 -2.84033,7.95389c-1.22265,1.88998 -2.22763,5.16055 -4.4762,5.05628c-2.19396,-0.10174 -2.60544,-3.54561 -3.72279,-5.43647c-0.88353,-1.49518 -0.9615,-3.33869 -1.50945,-4.98669c-1.53487,-4.61629 -3.22014,-9.18642 -4.76685,-13.82096c0,0 -0.70554,-2.11661 1.41107,-2.82215c2.11661,-0.70554 2.82215,1.41107 2.82215,1.41107c1.55498,4.67035 3.24136,9.25837 4.79503,13.90848c0.50416,1.50893 1.1095,3.00396 1.35912,4.57518c0.14228,0.89561 -0.49543,1.90353 -0.09824,2.71876c0.37461,0.76889 -0.03368,-1.73057 0.17566,-2.55985c0.33809,-1.33929 1.03089,-2.56573 1.45048,-3.88176c0.88481,-2.77513 1.51083,-5.62621 2.26723,-8.43906l0.56261,-2.68546c0.19484,-1.03345 1.10233,-1.81521 2.19241,-1.81521c0.97483,0 1.80363,0.62519 2.10734,1.49648l1.41599,3.77598l-0.03092,0.0116c0.02939,0.05293 0.05848,0.10603 0.08727,0.15933c0.38615,0.71499 0.23976,1.6136 0.47809,2.39047c1.13282,3.69246 2.47266,7.18689 3.5811,10.84429c0.22141,-0.81566 0.48751,-1.66239 0.70244,-2.59371c1.29767,-5.62285 1.73062,-12.38565 5.1728,-17.10437l0.26742,-0.61531c0,0 0.99778,-1.99556 2.99334,-0.99778z"/><path d="M339.04279,102.86285c1.57763,1.57763 0,3.15526 0,3.15526l-2.21829,1.58724c-1.4053,0.14357 -2.83061,0.70724 -4.2159,0.43071c-1.06196,-0.21198 -1.84791,-1.139 -2.69732,-1.8107c-0.34737,-0.27469 -0.42966,-0.93313 -0.86625,-1.00732c-1.00963,-0.17158 -1.76967,1.07379 -2.48487,1.80678c-1.25621,1.28745 -2.81655,2.436 -3.74756,3.95073c-0.11622,1.98242 -0.28225,3.96106 -0.43348,5.93674c0.03435,1.99478 0.05754,3.99039 -0.34505,5.92935c-0.01519,0.52699 -0.02469,1.05383 -0.02727,1.58053v2.9668c0,1.2322 -0.9989,2.2311 -2.2311,2.2311c-1.2322,0 -2.2311,-0.9989 -2.2311,-2.2311v-4.46221h0.0148c-0.00497,-0.01495 -0.00975,-0.03002 -0.01434,-0.0452c-0.43455,-1.43825 0.12134,-3.00249 0.18213,-4.50372c0.10838,-2.67679 -0.52562,-5.52488 0.43667,-8.02507c0.03667,-0.09528 0.12296,-0.2419 0.24824,-0.42816c0.05489,-1.18811 0.08869,-2.37845 0.08869,-3.57176c0,0 0,-2.2311 2.2311,-2.2311c0.89954,0 1.4364,0.36267 1.75681,0.79558c0.5387,-0.62049 0.93327,-1.06315 1.02061,-1.14882c1.31404,-1.28892 4.25242,-3.15122 6.12081,-2.97416c1.66638,0.15792 2.43004,2.67455 4.08593,2.9191c0.83512,0.12334 1.65161,-0.35032 2.47741,-0.52547l-0.30592,-0.32514c0,0 1.57763,-1.57763 3.15526,0z"/><path d="M343.01718,119.09425c0.74741,-3.51693 1.39221,-6.97927 1.7924,-10.59731c0,0 0.24638,-2.21746 2.46384,-1.97107c2.21746,0.24638 1.97107,2.46384 1.97107,2.46384c-0.52334,4.68979 -1.43148,9.13102 -2.45778,13.7358l-0.03291,0.09834l-0.00062,0.01164l-0.93992,2.81975c-0.28038,0.91168 -1.12924,1.57437 -2.13288,1.57437c-1.2322,0 -2.2311,-0.9989 -2.2311,-2.2311c0,-0.26497 0.04619,-0.51916 0.13096,-0.75494l0.91237,-2.7371c0.00785,-0.03546 0.0157,-0.07091 0.02354,-0.10635l-0.11068,-0.70446c0,0 0,-0.94162 0.61172,-1.60141z"/><path d="M348.14259,89.14148c0,-1.2322 0.9989,-2.2311 2.2311,-2.2311c1.2322,0 2.2311,0.9989 2.2311,2.2311c0,1.2322 -0.9989,2.2311 -2.2311,2.2311c-1.2322,0 -2.2311,-0.9989 -2.2311,-2.2311z"/><path d="M378.42186,108.26523c0,2.2311 -2.2311,2.2311 -2.2311,2.2311l-0.04054,-0.04333c-0.98889,0.17237 -1.96616,0.59842 -2.96666,0.51711c-1.76628,-0.14355 -3.34846,-1.45473 -5.1204,-1.42997c-0.65572,0.00916 -1.31423,0.04192 -1.97498,0.09014c-0.65755,6.03709 -1.08944,12.05589 -0.10436,18.05276l-0.06341,0.18402h0.07101v2.39047c0,1.2322 -0.9989,2.2311 -2.2311,2.2311c-0.82695,0 -1.54882,-0.4499 -1.93419,-1.11827l-1.41324,-2.3554l-0.31795,-2.10408c0,0 0,-1.33996 1.03843,-1.94302c-0.4652,-4.93779 -0.10959,-9.89614 0.4204,-14.86462c-1.81051,0.20723 -3.62842,0.39221 -5.44295,0.39309c0,0 -2.2311,0 -2.2311,-2.2311c0,-2.2311 2.2311,-2.2311 2.2311,-2.2311c1.97533,0.001 3.97178,-0.24366 5.95893,-0.48585c0.36148,-3.12025 0.71388,-6.24324 0.8976,-9.36641c0,0 0.13101,-2.22725 2.35827,-2.09624c2.22725,0.13101 2.09624,2.35827 2.09624,2.35827c-0.1701,2.89163 -0.4858,5.77969 -0.81781,8.6638c0.48856,-0.02323 0.97509,-0.03444 1.45912,-0.02976c2.87551,0.02779 4.40142,1.6797 7.21194,0.99951l0.91565,-0.04333c0,0 2.2311,0 2.2311,2.2311z"/><path d="M379.35252,128.6559c0.13043,-1.03961 0.19534,-2.09599 0.38452,-3.12312c0.48994,-2.66011 2.02857,-5.27839 2.37178,-8.01513c0.28462,-2.26955 -0.02157,-4.57462 -0.02157,-6.86195c0,0 0,-2.2311 2.2311,-2.2311c2.2311,0 2.2311,2.2311 2.2311,2.2311c0,1.07271 0.00447,7.27198 -0.02157,7.48086c-0.35095,2.8156 -1.92087,5.51512 -2.40916,8.24006c-0.35913,2.00417 -0.40303,4.08372 -1.03042,6.02074l-3.21411,-1.58189l-1.01911,0.17082c0.06671,-0.19316 0.12537,-0.3883 0.1774,-0.58508l-0.29189,-0.14366c0,0 0,-0.94183 0.61193,-1.60164z"/><path d="M383.52153,98.22526c0,-1.2322 0.9989,-2.2311 2.2311,-2.2311c1.2322,0 2.2311,0.9989 2.2311,2.2311c0,1.2322 -0.9989,2.2311 -2.2311,2.2311c-1.2322,0 -2.2311,-0.9989 -2.2311,-2.2311z"/><path d="M412.25273,137.41253c0.54218,0.28627 1.06998,0.84363 1.06998,1.9288c0,2.2311 -2.2311,2.2311 -2.2311,2.2311l-3.18729,-2.2311c0.01495,-4.33849 -1.92864,-6.91712 -2.83276,-11.07617c-0.41149,-1.89289 0.117,-3.7892 0.485,-5.61347c0.3358,-1.66465 1.46952,-5.1344 -0.57779,-6.10996c-1.83016,-0.87209 -3.0016,3.62791 -3.23071,4.33763c-0.54526,1.68903 -1.21901,3.37264 -1.84138,5.06516c-0.29732,2.09876 -0.64149,4.20053 -1.00289,6.32512l-0.13889,0.17824l0.07295,0.02735l-1.41599,3.77598c-0.30371,0.87129 -1.13251,1.49648 -2.10734,1.49648c-1.2322,0 -2.2311,-0.9989 -2.2311,-2.2311c0,-0.16575 0.01808,-0.32728 0.05236,-0.48273l0.86608,-4.33038c-0.01679,-1.81938 0.68546,-3.5277 1.46108,-5.19637c0.5626,-3.9601 0.96942,-7.90056 0.96714,-11.98283c0,0 0,-2.2311 2.2311,-2.2311c1.79488,0 2.14581,1.44395 2.21443,2.00859c1.34024,-1.32371 3.17338,-1.89078 5.81078,-0.88257c1.34151,0.51283 2.4986,1.70267 3.07475,3.01822c2.10585,4.80836 -1.36517,7.75732 -0.29897,12.03159c0.91862,3.68268 2.37531,6.36617 2.79057,9.94354z"/><path d="M405.62833,154.41288c0.70554,-2.11661 2.82215,-1.41107 2.82215,-1.41107l1.1663,0.40693c1.96422,0.41663 3.90721,1.15065 5.58831,2.24867c0.66713,0.43574 1.31998,0.90137 1.91237,1.43428c0.34247,0.30809 0.4166,1.13434 0.87293,1.07137c0.46652,-0.06437 0.3101,-0.91034 0.60735,-1.27562c2.07975,-2.55569 4.51859,-4.9201 5.12391,-8.40616c0.49366,-2.84301 0.30516,-5.80365 0.97561,-8.69637c0.37676,-1.62555 1.27635,-3.11506 1.70431,-4.71935c-0.45289,0.32188 -0.94179,0.57493 -1.47476,0.72418c-1.45153,0.40647 -3.0801,-0.53825 -4.28565,-1.44313c-1.05098,-0.78887 -1.62726,-2.11273 -2.09022,-3.34258c-0.97253,-2.5835 -1.6838,-8.91981 -0.97028,-11.49199c0.94057,-3.39066 6.78774,-6.56928 9.29398,-8.65794c0,0 1.71398,-1.42832 3.1423,0.28566c0.33271,0.39926 0.49492,0.78301 0.54801,1.13682c1.06613,0.16778 1.88149,1.09061 1.88149,2.20387v2.86856c-0.01633,2.60094 -0.32922,6.46616 -1.19577,9.80009c-0.05018,0.46992 -0.0829,0.77783 -0.08769,0.83386c-0.197,2.30397 0.15394,4.64662 -0.17964,6.93481c-0.16209,1.11183 -1.65883,4.65384 -1.94325,5.89234c-1.11128,4.83895 -0.72739,9.30745 -3.04125,13.86544c-1.30499,2.57064 -2.04162,3.40837 -4.24585,5.36715c-1.02279,0.9089 -1.85667,2.40554 -3.2174,2.54913c-1.4259,0.15047 -2.65444,-1.10121 -3.908,-1.79719c-2.26744,-1.25888 -3.23834,-2.52452 -5.88594,-3.01036l-1.70226,-0.54926c0,0 -2.11661,-0.70554 -1.41107,-2.82215zM424.41032,118.63467c-0.19706,0.15227 -2.46069,1.60401 -2.59642,2.28844c-0.4411,2.22422 0.37189,6.42407 0.9421,8.58795c0.19482,0.73933 0.65731,2.36004 1.27363,1.9076c2.08994,-1.53424 2.43437,-4.37597 2.79792,-6.83167c0.04645,-2.00087 0.21992,-3.97728 0.76188,-5.86465l0.26077,-2.86847c-1.12315,0.93636 -2.22388,1.84122 -3.43987,2.78081z"/><path d="M442.64579,148.74383c-2.2311,0 -2.2311,-2.2311 -2.2311,-2.2311c0,-2.39047 0,-5.25903 0,-7.6495c0.00825,-2.37463 0.03076,-5.36561 -0.43615,-7.69699c-0.16647,-0.83125 -0.91688,-1.51542 -0.94083,-2.36283c-0.05556,-1.96579 -0.01185,-4.02714 0.70852,-5.85703c0.38276,-0.9723 1.62247,-1.31905 2.39393,-2.02383c1.94021,-1.77253 5.16227,-4.41488 6.00499,-7.03765c0.24434,-0.76046 -0.50909,-3.57451 -0.54819,-3.96553c-0.11804,-1.18036 0.22128,-2.89351 -0.29464,-4.09012c-0.34038,-0.78947 -0.72686,-2.18019 -1.57542,-2.04208c-2.19925,0.35794 -3.91535,2.13004 -5.90808,3.12697c0,0 -1.99556,0.99778 -2.99334,-0.99778c-0.99778,-1.99556 0.99778,-2.99334 0.99778,-2.99334c1.37087,-0.68505 6.9217,-3.6532 8.43474,-3.56634c5.03801,0.28923 5.44373,6.76587 5.77945,10.12299c0.22262,2.22621 1.10764,3.1728 0.408,5.59634c-0.78805,2.72978 -3.41794,5.26178 -5.35346,7.19729c-0.67474,0.67474 -1.2933,1.41156 -2.02818,2.02024c-0.42655,0.35329 -1.21794,0.33342 -1.43082,0.84473c-0.66842,1.60549 0.38783,3.46046 0.72387,5.16676c0.51403,2.61011 0.512,5.91559 0.52004,8.5582c0,2.39047 0,4.78094 0,7.17141v0.47809c0,0 0,2.2311 -2.2311,2.2311z"/><path d="M440.23863,162.37474c0.99524,-2.2947 2.85612,-5.63855 6.04845,-2.88861c5.36756,4.62372 -0.43892,7.33943 -3.66055,7.26885c-0.44197,0.21848 -1.02416,0.29339 -1.76554,-0.00316c-2.07153,-0.82861 -1.24292,-2.90014 -1.24292,-2.90014c0.10869,-0.23531 0.24466,-0.57938 0.41121,-0.98177c-0.0155,-0.04843 -0.03191,-0.09598 -0.04937,-0.14253z"/></g></g></svg>