<svg version="1.1" xmlns="http://www.w3.org/2000/svg" xmlns:xlink="http://www.w3.org/1999/xlink" width="268.65711" height="92.66415" viewBox="0,0,268.65711,92.66415"><g transform="translate(-2.86569,-3.60191)"><g data-paper-data="{&quot;isPaintingLayer&quot;:true}" fill="#ff0000" fill-rule="nonzero" stroke="none" stroke-linecap="butt" stroke-linejoin="miter" stroke-miterlimit="10" stroke-dasharray="" stroke-dashoffset="0" style="mix-blend-mode: normal"><path d="M34.32556,17.09073c-4.5013,0.3659 -8.66934,1.96128 -12.85533,3.98424c-2.29231,1.1078 -3.58238,3.68598 -5.73711,5.0421c-1.57769,0.99295 -5.01282,0.90496 -5.64037,3.45571c-0.68675,2.79135 0.1807,7.40743 0.1807,10.33056c0,4.5125 0.4282,8.4229 0.86318,12.85773c0.27141,2.76721 -0.67134,5.62486 -0.07706,8.3411c0.51379,2.34834 2.23298,4.25812 3.30643,6.40903c3.37159,8.47272 7.54112,12.24027 15.37856,16.48925c0.49726,0.26958 5.08884,3.36219 6.10419,3.56392c6.42167,1.27589 13.85372,0.88568 20.39323,1.33789c5.98671,0.41398 11.94399,1.39895 17.00768,-2.47681c8.94087,-6.84336 10.20038,-17.63037 12.75717,-27.58543c0.07659,-5.39886 1.96622,-7.9976 3.66568,-12.97754c1.38821,-4.06788 1.62096,-10.85945 0.77305,-14.97668c-0.29003,-1.40829 -1.23736,-2.60773 -1.65336,-3.98408c-0.23311,-0.77126 0.3123,-1.85139 -0.27659,-2.40129c-2.17784,-2.03365 -5.68231,-2.02811 -8.11533,-3.74832c-3.28423,-2.32204 -5.75534,-5.11647 -9.72654,-6.59657c-3.39783,-1.2664 -6.81122,-0.81323 -10.1511,-1.6361c-1.27419,-0.31393 -2.26146,-1.39315 -3.52126,-1.76063c-3.19894,-0.93313 -6.98604,1.96652 -9.28753,3.34741c-2.34898,0.59874 -4.65357,1.44034 -6.81528,2.53723l-3.10218,1.07136c0,0 -2.04744,0.68248 -3.47082,-0.62407zM37.99591,10.22333c2.24761,-1.09498 4.59592,-2.02957 7.02286,-2.62354c4.22604,-2.53563 8.40225,-4.84279 13.60062,-3.6951c1.28144,0.28291 2.24936,1.43752 3.52126,1.76063c3.51407,0.89269 7.35258,0.51968 10.97643,1.88515c4.54089,1.71102 7.64862,4.77517 11.40099,7.48845c2.90458,2.10026 7.00235,2.47517 9.49095,5.05481c1.12769,1.16895 0.94159,3.11024 1.48404,4.64122c0.57537,1.62388 1.53757,3.12822 1.8679,4.81905c1.03184,5.28175 0.69878,13.32136 -0.98758,18.47524c-1.58798,4.85321 -3.4625,6.5894 -3.37683,11.67125c-2.86066,11.72105 -4.80527,24.43166 -15.41287,32.2759c-6.783,5.01598 -13.81478,4.50276 -21.82626,3.95168c-6.92598,-0.47641 -14.99703,-0.05708 -21.7617,-1.56935c-2.53321,-0.56631 -5.45976,-2.98925 -7.7072,-4.22209c-2.17235,-1.19165 -4.55859,-2.00132 -6.62991,-3.36101c-5.75976,-3.78091 -9.24244,-10.22289 -11.71708,-16.37942c-0.43586,-0.86997 -3.62337,-7.17399 -3.73608,-7.67599c-0.44035,-1.9613 0.14877,-7.05285 -0.07706,-9.26518c-0.47249,-4.62878 -0.89745,-8.84433 -0.89745,-13.55168c0,-3.32682 -0.93153,-9.59248 0.1807,-12.5576c0.75698,-2.01804 2.19061,-3.81465 3.83956,-5.20262c1.27094,-1.06978 3.19346,-1.02963 4.60508,-1.90544c2.43463,-1.5105 4.03725,-4.21539 6.58728,-5.52167c5.74795,-2.94446 11.82609,-4.65669 18.2393,-4.74335c0,0 0.60478,0 1.31307,0.25064z" stroke-width="0.5"/><path d="M70.12498,77.75001c0,-1.38071 1.11929,-2.5 2.5,-2.5c1.38071,0 2.5,1.11929 2.5,2.5c0,1.38071 -1.11929,2.5 -2.5,2.5c-1.38071,0 -2.5,-1.11929 -2.5,-2.5z" stroke-width="0.5"/><path d="M38.16887,58.32451c0.38456,2.34525 0.96851,4.66752 1.19198,7.03336c0.04525,0.47906 -0.74705,1.06724 -0.39006,1.38989c0.56289,0.50874 1.55162,0.0169 2.25668,0.29716c2.66636,1.05984 4.49305,3.10554 7.16773,4.16063c1.57724,0.3087 3.13721,1.32187 4.71415,1.01167c0.80588,-0.15852 1.30512,-1.01211 2.03401,-1.39064c2.39682,-1.24472 4.29935,-2.4181 6.30743,-4.34958c1.71739,-1.65187 2.14749,-3.98936 2.48237,-6.22764c0.05268,-0.35213 0.38313,-0.86262 0.08976,-1.06437c-0.60576,-0.41659 -1.47161,-0.1535 -2.17442,-0.36927c-1.49164,-0.45793 -2.93503,-1.06225 -4.38294,-1.64385c-3.48999,-1.40187 -7.56128,-2.80306 -11.45282,-2.00793c-1.94102,0.39659 -3.69579,1.4326 -5.57505,2.05967l-1.81539,0.93579c0,0 -0.17579,0.0879 -0.45343,0.16511zM37.74828,53.02173l1.10827,-0.54153c2.08655,-0.69476 4.0529,-1.80124 6.21066,-2.22604c4.86239,-0.95727 9.85388,0.52189 14.26146,2.27779c0.48557,0.19344 8.10984,2.97121 8.44265,3.34403c1.80417,2.02107 1.12971,6.00618 0.53333,8.221c-1.45274,5.39516 -6.23792,8.92252 -10.93948,11.20884c-1.13632,0.55258 -2.07812,1.60805 -3.32314,1.82365c-1.01401,0.17559 -5.73069,-0.85829 -7.07156,-1.13119c-2.98568,-1.20547 -5.00666,-2.99533 -7.83227,-4.4108c-1.35959,-0.68108 -3.19411,-0.68109 -4.17189,-1.8457c-0.82455,-0.9821 -0.34612,-2.54197 -0.57176,-3.8043c-0.58613,-3.27922 -1.29167,-6.55317 -1.52932,-9.87588c-0.38112,-5.32851 -0.7557,-14.06483 2.08118,-18.75112c0.23342,-0.38559 5.43439,-3.53083 6.17627,-3.93579c4.9618,-2.70842 9.91842,-5.58334 15.66731,-5.66563c0,0 2.5,0 2.5,2.5c0,2.5 -2.5,2.5 -2.5,2.5c-4.72173,-0.09656 -9.2067,2.83875 -13.26127,5.04866c-0.88618,0.483 -1.71076,1.07344 -2.59535,1.55936c-0.62968,0.34589 -1.59412,0.3052 -1.94266,0.93342c-0.6221,1.12129 -0.51754,2.51455 -0.67627,3.78698c-0.36178,2.90004 -0.5967,5.98267 -0.56614,8.98427z" stroke-width="0.5"/><text transform="translate(141.43284,44.13762) scale(0.5,0.5)" font-size="40" xml:space="preserve" fill="#ff0000" fill-rule="nonzero" stroke="none" stroke-width="1" stroke-linecap="butt" stroke-linejoin="miter" stroke-miterlimit="10" stroke-dasharray="" stroke-dashoffset="0" font-family="Sans Serif" font-weight="normal" text-anchor="start" style="mix-blend-mode: normal"><tspan x="0" dy="0">Who are you?</tspan></text></g></g></svg>